%TF.GenerationSoftware,KiCad,Pcbnew,10.0.5*%
%TF.CreationDate,2026-08-24T21:37:02+08:00*%
%TF.ProjectId,holter_v1,686f6c74-6572-45f7-9631-2e6b69636164,rev?*%
%TF.SameCoordinates,Original*%
%TF.FileFunction,Legend,Top*%
%TF.FilePolarity,Positive*%
%FSLAX46Y46*%
G04 Gerber Fmt 4.6, Leading zero omitted, Abs format (unit mm)*
G04 Created by KiCad (PCBNEW 10.0.5) date 2026-08-24 21:37:02*
%MOMM*%
%LPD*%
G01*
G04 APERTURE LIST*
%ADD10C,0.120000*%
%ADD11C,0.128000*%
%ADD12C,0.150000*%
G04 APERTURE END LIST*
D10*
X92988095Y-10891057D02*
X93250000Y-10891057D01*
X92935714Y-11048200D02*
X93119048Y-10498200D01*
X93119048Y-10498200D02*
X93302381Y-11048200D01*
X93485715Y-11048200D02*
X93485715Y-10498200D01*
X93485715Y-10498200D02*
X93800001Y-11048200D01*
X93800001Y-11048200D02*
X93800001Y-10498200D01*
X93983333Y-10498200D02*
X94297619Y-10498200D01*
X94140476Y-11048200D02*
X94140476Y-10498200D01*
X94900001Y-11048200D02*
X94900001Y-10498200D01*
X95214287Y-11048200D02*
X94978572Y-10733914D01*
X95214287Y-10498200D02*
X94900001Y-10812486D01*
X95450001Y-10760105D02*
X95633334Y-10760105D01*
X95711906Y-11048200D02*
X95450001Y-11048200D01*
X95450001Y-11048200D02*
X95450001Y-10498200D01*
X95450001Y-10498200D02*
X95711906Y-10498200D01*
X95947620Y-10760105D02*
X96130953Y-10760105D01*
X96209525Y-11048200D02*
X95947620Y-11048200D01*
X95947620Y-11048200D02*
X95947620Y-10498200D01*
X95947620Y-10498200D02*
X96209525Y-10498200D01*
X96445239Y-11048200D02*
X96445239Y-10498200D01*
X96445239Y-10498200D02*
X96654763Y-10498200D01*
X96654763Y-10498200D02*
X96707144Y-10524390D01*
X96707144Y-10524390D02*
X96733334Y-10550581D01*
X96733334Y-10550581D02*
X96759525Y-10602962D01*
X96759525Y-10602962D02*
X96759525Y-10681533D01*
X96759525Y-10681533D02*
X96733334Y-10733914D01*
X96733334Y-10733914D02*
X96707144Y-10760105D01*
X96707144Y-10760105D02*
X96654763Y-10786295D01*
X96654763Y-10786295D02*
X96445239Y-10786295D01*
X96995239Y-10838676D02*
X97414287Y-10838676D01*
X97780953Y-10498200D02*
X97885715Y-10498200D01*
X97885715Y-10498200D02*
X97938096Y-10524390D01*
X97938096Y-10524390D02*
X97990477Y-10576771D01*
X97990477Y-10576771D02*
X98016667Y-10681533D01*
X98016667Y-10681533D02*
X98016667Y-10864867D01*
X98016667Y-10864867D02*
X97990477Y-10969629D01*
X97990477Y-10969629D02*
X97938096Y-11022010D01*
X97938096Y-11022010D02*
X97885715Y-11048200D01*
X97885715Y-11048200D02*
X97780953Y-11048200D01*
X97780953Y-11048200D02*
X97728572Y-11022010D01*
X97728572Y-11022010D02*
X97676191Y-10969629D01*
X97676191Y-10969629D02*
X97650000Y-10864867D01*
X97650000Y-10864867D02*
X97650000Y-10681533D01*
X97650000Y-10681533D02*
X97676191Y-10576771D01*
X97676191Y-10576771D02*
X97728572Y-10524390D01*
X97728572Y-10524390D02*
X97780953Y-10498200D01*
X98252381Y-10498200D02*
X98252381Y-10943438D01*
X98252381Y-10943438D02*
X98278571Y-10995819D01*
X98278571Y-10995819D02*
X98304762Y-11022010D01*
X98304762Y-11022010D02*
X98357143Y-11048200D01*
X98357143Y-11048200D02*
X98461905Y-11048200D01*
X98461905Y-11048200D02*
X98514286Y-11022010D01*
X98514286Y-11022010D02*
X98540476Y-10995819D01*
X98540476Y-10995819D02*
X98566667Y-10943438D01*
X98566667Y-10943438D02*
X98566667Y-10498200D01*
X98749999Y-10498200D02*
X99064285Y-10498200D01*
X98907142Y-11048200D02*
X98907142Y-10498200D01*
X10741667Y-1294462D02*
X10741667Y-644462D01*
X10741667Y-953986D02*
X11113096Y-953986D01*
X11113096Y-1294462D02*
X11113096Y-644462D01*
X11546429Y-644462D02*
X11670238Y-644462D01*
X11670238Y-644462D02*
X11732143Y-675414D01*
X11732143Y-675414D02*
X11794048Y-737319D01*
X11794048Y-737319D02*
X11825000Y-861129D01*
X11825000Y-861129D02*
X11825000Y-1077795D01*
X11825000Y-1077795D02*
X11794048Y-1201605D01*
X11794048Y-1201605D02*
X11732143Y-1263510D01*
X11732143Y-1263510D02*
X11670238Y-1294462D01*
X11670238Y-1294462D02*
X11546429Y-1294462D01*
X11546429Y-1294462D02*
X11484524Y-1263510D01*
X11484524Y-1263510D02*
X11422619Y-1201605D01*
X11422619Y-1201605D02*
X11391667Y-1077795D01*
X11391667Y-1077795D02*
X11391667Y-861129D01*
X11391667Y-861129D02*
X11422619Y-737319D01*
X11422619Y-737319D02*
X11484524Y-675414D01*
X11484524Y-675414D02*
X11546429Y-644462D01*
X12413095Y-1294462D02*
X12103571Y-1294462D01*
X12103571Y-1294462D02*
X12103571Y-644462D01*
X12536904Y-644462D02*
X12908333Y-644462D01*
X12722619Y-1294462D02*
X12722619Y-644462D01*
X13124999Y-953986D02*
X13341666Y-953986D01*
X13434523Y-1294462D02*
X13124999Y-1294462D01*
X13124999Y-1294462D02*
X13124999Y-644462D01*
X13124999Y-644462D02*
X13434523Y-644462D01*
X14084523Y-1294462D02*
X13867856Y-984938D01*
X13713094Y-1294462D02*
X13713094Y-644462D01*
X13713094Y-644462D02*
X13960713Y-644462D01*
X13960713Y-644462D02*
X14022618Y-675414D01*
X14022618Y-675414D02*
X14053571Y-706367D01*
X14053571Y-706367D02*
X14084523Y-768271D01*
X14084523Y-768271D02*
X14084523Y-861129D01*
X14084523Y-861129D02*
X14053571Y-923033D01*
X14053571Y-923033D02*
X14022618Y-953986D01*
X14022618Y-953986D02*
X13960713Y-984938D01*
X13960713Y-984938D02*
X13713094Y-984938D01*
X14765475Y-644462D02*
X14982142Y-1294462D01*
X14982142Y-1294462D02*
X15198809Y-644462D01*
X15755952Y-1294462D02*
X15384523Y-1294462D01*
X15570237Y-1294462D02*
X15570237Y-644462D01*
X15570237Y-644462D02*
X15508333Y-737319D01*
X15508333Y-737319D02*
X15446428Y-799224D01*
X15446428Y-799224D02*
X15384523Y-830176D01*
X16684523Y-1511129D02*
X16684523Y-582557D01*
X18015476Y-1294462D02*
X17798809Y-984938D01*
X17644047Y-1294462D02*
X17644047Y-644462D01*
X17644047Y-644462D02*
X17891666Y-644462D01*
X17891666Y-644462D02*
X17953571Y-675414D01*
X17953571Y-675414D02*
X17984524Y-706367D01*
X17984524Y-706367D02*
X18015476Y-768271D01*
X18015476Y-768271D02*
X18015476Y-861129D01*
X18015476Y-861129D02*
X17984524Y-923033D01*
X17984524Y-923033D02*
X17953571Y-953986D01*
X17953571Y-953986D02*
X17891666Y-984938D01*
X17891666Y-984938D02*
X17644047Y-984938D01*
X18294047Y-953986D02*
X18510714Y-953986D01*
X18603571Y-1294462D02*
X18294047Y-1294462D01*
X18294047Y-1294462D02*
X18294047Y-644462D01*
X18294047Y-644462D02*
X18603571Y-644462D01*
X18851190Y-1263510D02*
X18944047Y-1294462D01*
X18944047Y-1294462D02*
X19098809Y-1294462D01*
X19098809Y-1294462D02*
X19160714Y-1263510D01*
X19160714Y-1263510D02*
X19191666Y-1232557D01*
X19191666Y-1232557D02*
X19222619Y-1170652D01*
X19222619Y-1170652D02*
X19222619Y-1108748D01*
X19222619Y-1108748D02*
X19191666Y-1046843D01*
X19191666Y-1046843D02*
X19160714Y-1015890D01*
X19160714Y-1015890D02*
X19098809Y-984938D01*
X19098809Y-984938D02*
X18975000Y-953986D01*
X18975000Y-953986D02*
X18913095Y-923033D01*
X18913095Y-923033D02*
X18882142Y-892081D01*
X18882142Y-892081D02*
X18851190Y-830176D01*
X18851190Y-830176D02*
X18851190Y-768271D01*
X18851190Y-768271D02*
X18882142Y-706367D01*
X18882142Y-706367D02*
X18913095Y-675414D01*
X18913095Y-675414D02*
X18975000Y-644462D01*
X18975000Y-644462D02*
X19129761Y-644462D01*
X19129761Y-644462D02*
X19222619Y-675414D01*
X19501190Y-953986D02*
X19717857Y-953986D01*
X19810714Y-1294462D02*
X19501190Y-1294462D01*
X19501190Y-1294462D02*
X19501190Y-644462D01*
X19501190Y-644462D02*
X19810714Y-644462D01*
X20058333Y-1108748D02*
X20367857Y-1108748D01*
X19996428Y-1294462D02*
X20213095Y-644462D01*
X20213095Y-644462D02*
X20429762Y-1294462D01*
X21017857Y-1294462D02*
X20801190Y-984938D01*
X20646428Y-1294462D02*
X20646428Y-644462D01*
X20646428Y-644462D02*
X20894047Y-644462D01*
X20894047Y-644462D02*
X20955952Y-675414D01*
X20955952Y-675414D02*
X20986905Y-706367D01*
X20986905Y-706367D02*
X21017857Y-768271D01*
X21017857Y-768271D02*
X21017857Y-861129D01*
X21017857Y-861129D02*
X20986905Y-923033D01*
X20986905Y-923033D02*
X20955952Y-953986D01*
X20955952Y-953986D02*
X20894047Y-984938D01*
X20894047Y-984938D02*
X20646428Y-984938D01*
X21667857Y-1232557D02*
X21636905Y-1263510D01*
X21636905Y-1263510D02*
X21544047Y-1294462D01*
X21544047Y-1294462D02*
X21482143Y-1294462D01*
X21482143Y-1294462D02*
X21389286Y-1263510D01*
X21389286Y-1263510D02*
X21327381Y-1201605D01*
X21327381Y-1201605D02*
X21296428Y-1139700D01*
X21296428Y-1139700D02*
X21265476Y-1015890D01*
X21265476Y-1015890D02*
X21265476Y-923033D01*
X21265476Y-923033D02*
X21296428Y-799224D01*
X21296428Y-799224D02*
X21327381Y-737319D01*
X21327381Y-737319D02*
X21389286Y-675414D01*
X21389286Y-675414D02*
X21482143Y-644462D01*
X21482143Y-644462D02*
X21544047Y-644462D01*
X21544047Y-644462D02*
X21636905Y-675414D01*
X21636905Y-675414D02*
X21667857Y-706367D01*
X21946428Y-1294462D02*
X21946428Y-644462D01*
X21946428Y-953986D02*
X22317857Y-953986D01*
X22317857Y-1294462D02*
X22317857Y-644462D01*
X23246428Y-644462D02*
X23370237Y-644462D01*
X23370237Y-644462D02*
X23432142Y-675414D01*
X23432142Y-675414D02*
X23494047Y-737319D01*
X23494047Y-737319D02*
X23524999Y-861129D01*
X23524999Y-861129D02*
X23524999Y-1077795D01*
X23524999Y-1077795D02*
X23494047Y-1201605D01*
X23494047Y-1201605D02*
X23432142Y-1263510D01*
X23432142Y-1263510D02*
X23370237Y-1294462D01*
X23370237Y-1294462D02*
X23246428Y-1294462D01*
X23246428Y-1294462D02*
X23184523Y-1263510D01*
X23184523Y-1263510D02*
X23122618Y-1201605D01*
X23122618Y-1201605D02*
X23091666Y-1077795D01*
X23091666Y-1077795D02*
X23091666Y-861129D01*
X23091666Y-861129D02*
X23122618Y-737319D01*
X23122618Y-737319D02*
X23184523Y-675414D01*
X23184523Y-675414D02*
X23246428Y-644462D01*
X23803570Y-1294462D02*
X23803570Y-644462D01*
X23803570Y-644462D02*
X24174999Y-1294462D01*
X24174999Y-1294462D02*
X24174999Y-644462D01*
X24794046Y-1294462D02*
X24484522Y-1294462D01*
X24484522Y-1294462D02*
X24484522Y-644462D01*
X25134522Y-984938D02*
X25134522Y-1294462D01*
X24917855Y-644462D02*
X25134522Y-984938D01*
X25134522Y-984938D02*
X25351189Y-644462D01*
X52559525Y-1294462D02*
X52559525Y-644462D01*
X52559525Y-644462D02*
X52714287Y-644462D01*
X52714287Y-644462D02*
X52807144Y-675414D01*
X52807144Y-675414D02*
X52869049Y-737319D01*
X52869049Y-737319D02*
X52900002Y-799224D01*
X52900002Y-799224D02*
X52930954Y-923033D01*
X52930954Y-923033D02*
X52930954Y-1015890D01*
X52930954Y-1015890D02*
X52900002Y-1139700D01*
X52900002Y-1139700D02*
X52869049Y-1201605D01*
X52869049Y-1201605D02*
X52807144Y-1263510D01*
X52807144Y-1263510D02*
X52714287Y-1294462D01*
X52714287Y-1294462D02*
X52559525Y-1294462D01*
X53209525Y-1294462D02*
X53209525Y-644462D01*
X53488097Y-1263510D02*
X53580954Y-1294462D01*
X53580954Y-1294462D02*
X53735716Y-1294462D01*
X53735716Y-1294462D02*
X53797621Y-1263510D01*
X53797621Y-1263510D02*
X53828573Y-1232557D01*
X53828573Y-1232557D02*
X53859526Y-1170652D01*
X53859526Y-1170652D02*
X53859526Y-1108748D01*
X53859526Y-1108748D02*
X53828573Y-1046843D01*
X53828573Y-1046843D02*
X53797621Y-1015890D01*
X53797621Y-1015890D02*
X53735716Y-984938D01*
X53735716Y-984938D02*
X53611907Y-953986D01*
X53611907Y-953986D02*
X53550002Y-923033D01*
X53550002Y-923033D02*
X53519049Y-892081D01*
X53519049Y-892081D02*
X53488097Y-830176D01*
X53488097Y-830176D02*
X53488097Y-768271D01*
X53488097Y-768271D02*
X53519049Y-706367D01*
X53519049Y-706367D02*
X53550002Y-675414D01*
X53550002Y-675414D02*
X53611907Y-644462D01*
X53611907Y-644462D02*
X53766668Y-644462D01*
X53766668Y-644462D02*
X53859526Y-675414D01*
X54509526Y-1232557D02*
X54478574Y-1263510D01*
X54478574Y-1263510D02*
X54385716Y-1294462D01*
X54385716Y-1294462D02*
X54323812Y-1294462D01*
X54323812Y-1294462D02*
X54230955Y-1263510D01*
X54230955Y-1263510D02*
X54169050Y-1201605D01*
X54169050Y-1201605D02*
X54138097Y-1139700D01*
X54138097Y-1139700D02*
X54107145Y-1015890D01*
X54107145Y-1015890D02*
X54107145Y-923033D01*
X54107145Y-923033D02*
X54138097Y-799224D01*
X54138097Y-799224D02*
X54169050Y-737319D01*
X54169050Y-737319D02*
X54230955Y-675414D01*
X54230955Y-675414D02*
X54323812Y-644462D01*
X54323812Y-644462D02*
X54385716Y-644462D01*
X54385716Y-644462D02*
X54478574Y-675414D01*
X54478574Y-675414D02*
X54509526Y-706367D01*
X54911907Y-644462D02*
X55035716Y-644462D01*
X55035716Y-644462D02*
X55097621Y-675414D01*
X55097621Y-675414D02*
X55159526Y-737319D01*
X55159526Y-737319D02*
X55190478Y-861129D01*
X55190478Y-861129D02*
X55190478Y-1077795D01*
X55190478Y-1077795D02*
X55159526Y-1201605D01*
X55159526Y-1201605D02*
X55097621Y-1263510D01*
X55097621Y-1263510D02*
X55035716Y-1294462D01*
X55035716Y-1294462D02*
X54911907Y-1294462D01*
X54911907Y-1294462D02*
X54850002Y-1263510D01*
X54850002Y-1263510D02*
X54788097Y-1201605D01*
X54788097Y-1201605D02*
X54757145Y-1077795D01*
X54757145Y-1077795D02*
X54757145Y-861129D01*
X54757145Y-861129D02*
X54788097Y-737319D01*
X54788097Y-737319D02*
X54850002Y-675414D01*
X54850002Y-675414D02*
X54911907Y-644462D01*
X55469049Y-1294462D02*
X55469049Y-644462D01*
X55469049Y-644462D02*
X55840478Y-1294462D01*
X55840478Y-1294462D02*
X55840478Y-644462D01*
X56150001Y-1294462D02*
X56150001Y-644462D01*
X56150001Y-644462D02*
X56521430Y-1294462D01*
X56521430Y-1294462D02*
X56521430Y-644462D01*
X56830953Y-953986D02*
X57047620Y-953986D01*
X57140477Y-1294462D02*
X56830953Y-1294462D01*
X56830953Y-1294462D02*
X56830953Y-644462D01*
X56830953Y-644462D02*
X57140477Y-644462D01*
X57790477Y-1232557D02*
X57759525Y-1263510D01*
X57759525Y-1263510D02*
X57666667Y-1294462D01*
X57666667Y-1294462D02*
X57604763Y-1294462D01*
X57604763Y-1294462D02*
X57511906Y-1263510D01*
X57511906Y-1263510D02*
X57450001Y-1201605D01*
X57450001Y-1201605D02*
X57419048Y-1139700D01*
X57419048Y-1139700D02*
X57388096Y-1015890D01*
X57388096Y-1015890D02*
X57388096Y-923033D01*
X57388096Y-923033D02*
X57419048Y-799224D01*
X57419048Y-799224D02*
X57450001Y-737319D01*
X57450001Y-737319D02*
X57511906Y-675414D01*
X57511906Y-675414D02*
X57604763Y-644462D01*
X57604763Y-644462D02*
X57666667Y-644462D01*
X57666667Y-644462D02*
X57759525Y-675414D01*
X57759525Y-675414D02*
X57790477Y-706367D01*
X57976191Y-644462D02*
X58347620Y-644462D01*
X58161906Y-1294462D02*
X58161906Y-644462D01*
X59059524Y-953986D02*
X59276191Y-953986D01*
X59369048Y-1294462D02*
X59059524Y-1294462D01*
X59059524Y-1294462D02*
X59059524Y-644462D01*
X59059524Y-644462D02*
X59369048Y-644462D01*
X59957143Y-1294462D02*
X59647619Y-1294462D01*
X59647619Y-1294462D02*
X59647619Y-644462D01*
X60173809Y-953986D02*
X60390476Y-953986D01*
X60483333Y-1294462D02*
X60173809Y-1294462D01*
X60173809Y-1294462D02*
X60173809Y-644462D01*
X60173809Y-644462D02*
X60483333Y-644462D01*
X61133333Y-1232557D02*
X61102381Y-1263510D01*
X61102381Y-1263510D02*
X61009523Y-1294462D01*
X61009523Y-1294462D02*
X60947619Y-1294462D01*
X60947619Y-1294462D02*
X60854762Y-1263510D01*
X60854762Y-1263510D02*
X60792857Y-1201605D01*
X60792857Y-1201605D02*
X60761904Y-1139700D01*
X60761904Y-1139700D02*
X60730952Y-1015890D01*
X60730952Y-1015890D02*
X60730952Y-923033D01*
X60730952Y-923033D02*
X60761904Y-799224D01*
X60761904Y-799224D02*
X60792857Y-737319D01*
X60792857Y-737319D02*
X60854762Y-675414D01*
X60854762Y-675414D02*
X60947619Y-644462D01*
X60947619Y-644462D02*
X61009523Y-644462D01*
X61009523Y-644462D02*
X61102381Y-675414D01*
X61102381Y-675414D02*
X61133333Y-706367D01*
X61319047Y-644462D02*
X61690476Y-644462D01*
X61504762Y-1294462D02*
X61504762Y-644462D01*
X62278571Y-1294462D02*
X62061904Y-984938D01*
X61907142Y-1294462D02*
X61907142Y-644462D01*
X61907142Y-644462D02*
X62154761Y-644462D01*
X62154761Y-644462D02*
X62216666Y-675414D01*
X62216666Y-675414D02*
X62247619Y-706367D01*
X62247619Y-706367D02*
X62278571Y-768271D01*
X62278571Y-768271D02*
X62278571Y-861129D01*
X62278571Y-861129D02*
X62247619Y-923033D01*
X62247619Y-923033D02*
X62216666Y-953986D01*
X62216666Y-953986D02*
X62154761Y-984938D01*
X62154761Y-984938D02*
X61907142Y-984938D01*
X62680952Y-644462D02*
X62804761Y-644462D01*
X62804761Y-644462D02*
X62866666Y-675414D01*
X62866666Y-675414D02*
X62928571Y-737319D01*
X62928571Y-737319D02*
X62959523Y-861129D01*
X62959523Y-861129D02*
X62959523Y-1077795D01*
X62959523Y-1077795D02*
X62928571Y-1201605D01*
X62928571Y-1201605D02*
X62866666Y-1263510D01*
X62866666Y-1263510D02*
X62804761Y-1294462D01*
X62804761Y-1294462D02*
X62680952Y-1294462D01*
X62680952Y-1294462D02*
X62619047Y-1263510D01*
X62619047Y-1263510D02*
X62557142Y-1201605D01*
X62557142Y-1201605D02*
X62526190Y-1077795D01*
X62526190Y-1077795D02*
X62526190Y-861129D01*
X62526190Y-861129D02*
X62557142Y-737319D01*
X62557142Y-737319D02*
X62619047Y-675414D01*
X62619047Y-675414D02*
X62680952Y-644462D01*
X63238094Y-1294462D02*
X63238094Y-644462D01*
X63238094Y-644462D02*
X63392856Y-644462D01*
X63392856Y-644462D02*
X63485713Y-675414D01*
X63485713Y-675414D02*
X63547618Y-737319D01*
X63547618Y-737319D02*
X63578571Y-799224D01*
X63578571Y-799224D02*
X63609523Y-923033D01*
X63609523Y-923033D02*
X63609523Y-1015890D01*
X63609523Y-1015890D02*
X63578571Y-1139700D01*
X63578571Y-1139700D02*
X63547618Y-1201605D01*
X63547618Y-1201605D02*
X63485713Y-1263510D01*
X63485713Y-1263510D02*
X63392856Y-1294462D01*
X63392856Y-1294462D02*
X63238094Y-1294462D01*
X63888094Y-953986D02*
X64104761Y-953986D01*
X64197618Y-1294462D02*
X63888094Y-1294462D01*
X63888094Y-1294462D02*
X63888094Y-644462D01*
X63888094Y-644462D02*
X64197618Y-644462D01*
X64445237Y-1263510D02*
X64538094Y-1294462D01*
X64538094Y-1294462D02*
X64692856Y-1294462D01*
X64692856Y-1294462D02*
X64754761Y-1263510D01*
X64754761Y-1263510D02*
X64785713Y-1232557D01*
X64785713Y-1232557D02*
X64816666Y-1170652D01*
X64816666Y-1170652D02*
X64816666Y-1108748D01*
X64816666Y-1108748D02*
X64785713Y-1046843D01*
X64785713Y-1046843D02*
X64754761Y-1015890D01*
X64754761Y-1015890D02*
X64692856Y-984938D01*
X64692856Y-984938D02*
X64569047Y-953986D01*
X64569047Y-953986D02*
X64507142Y-923033D01*
X64507142Y-923033D02*
X64476189Y-892081D01*
X64476189Y-892081D02*
X64445237Y-830176D01*
X64445237Y-830176D02*
X64445237Y-768271D01*
X64445237Y-768271D02*
X64476189Y-706367D01*
X64476189Y-706367D02*
X64507142Y-675414D01*
X64507142Y-675414D02*
X64569047Y-644462D01*
X64569047Y-644462D02*
X64723808Y-644462D01*
X64723808Y-644462D02*
X64816666Y-675414D01*
X65807142Y-953986D02*
X65899999Y-984938D01*
X65899999Y-984938D02*
X65930952Y-1015890D01*
X65930952Y-1015890D02*
X65961904Y-1077795D01*
X65961904Y-1077795D02*
X65961904Y-1170652D01*
X65961904Y-1170652D02*
X65930952Y-1232557D01*
X65930952Y-1232557D02*
X65899999Y-1263510D01*
X65899999Y-1263510D02*
X65838094Y-1294462D01*
X65838094Y-1294462D02*
X65590475Y-1294462D01*
X65590475Y-1294462D02*
X65590475Y-644462D01*
X65590475Y-644462D02*
X65807142Y-644462D01*
X65807142Y-644462D02*
X65869047Y-675414D01*
X65869047Y-675414D02*
X65899999Y-706367D01*
X65899999Y-706367D02*
X65930952Y-768271D01*
X65930952Y-768271D02*
X65930952Y-830176D01*
X65930952Y-830176D02*
X65899999Y-892081D01*
X65899999Y-892081D02*
X65869047Y-923033D01*
X65869047Y-923033D02*
X65807142Y-953986D01*
X65807142Y-953986D02*
X65590475Y-953986D01*
X66240475Y-953986D02*
X66457142Y-953986D01*
X66549999Y-1294462D02*
X66240475Y-1294462D01*
X66240475Y-1294462D02*
X66240475Y-644462D01*
X66240475Y-644462D02*
X66549999Y-644462D01*
X67045237Y-953986D02*
X66828570Y-953986D01*
X66828570Y-1294462D02*
X66828570Y-644462D01*
X66828570Y-644462D02*
X67138094Y-644462D01*
X67509523Y-644462D02*
X67633332Y-644462D01*
X67633332Y-644462D02*
X67695237Y-675414D01*
X67695237Y-675414D02*
X67757142Y-737319D01*
X67757142Y-737319D02*
X67788094Y-861129D01*
X67788094Y-861129D02*
X67788094Y-1077795D01*
X67788094Y-1077795D02*
X67757142Y-1201605D01*
X67757142Y-1201605D02*
X67695237Y-1263510D01*
X67695237Y-1263510D02*
X67633332Y-1294462D01*
X67633332Y-1294462D02*
X67509523Y-1294462D01*
X67509523Y-1294462D02*
X67447618Y-1263510D01*
X67447618Y-1263510D02*
X67385713Y-1201605D01*
X67385713Y-1201605D02*
X67354761Y-1077795D01*
X67354761Y-1077795D02*
X67354761Y-861129D01*
X67354761Y-861129D02*
X67385713Y-737319D01*
X67385713Y-737319D02*
X67447618Y-675414D01*
X67447618Y-675414D02*
X67509523Y-644462D01*
X68438094Y-1294462D02*
X68221427Y-984938D01*
X68066665Y-1294462D02*
X68066665Y-644462D01*
X68066665Y-644462D02*
X68314284Y-644462D01*
X68314284Y-644462D02*
X68376189Y-675414D01*
X68376189Y-675414D02*
X68407142Y-706367D01*
X68407142Y-706367D02*
X68438094Y-768271D01*
X68438094Y-768271D02*
X68438094Y-861129D01*
X68438094Y-861129D02*
X68407142Y-923033D01*
X68407142Y-923033D02*
X68376189Y-953986D01*
X68376189Y-953986D02*
X68314284Y-984938D01*
X68314284Y-984938D02*
X68066665Y-984938D01*
X68716665Y-953986D02*
X68933332Y-953986D01*
X69026189Y-1294462D02*
X68716665Y-1294462D01*
X68716665Y-1294462D02*
X68716665Y-644462D01*
X68716665Y-644462D02*
X69026189Y-644462D01*
X69799998Y-644462D02*
X69799998Y-1170652D01*
X69799998Y-1170652D02*
X69830951Y-1232557D01*
X69830951Y-1232557D02*
X69861903Y-1263510D01*
X69861903Y-1263510D02*
X69923808Y-1294462D01*
X69923808Y-1294462D02*
X70047617Y-1294462D01*
X70047617Y-1294462D02*
X70109522Y-1263510D01*
X70109522Y-1263510D02*
X70140475Y-1232557D01*
X70140475Y-1232557D02*
X70171427Y-1170652D01*
X70171427Y-1170652D02*
X70171427Y-644462D01*
X70449998Y-1263510D02*
X70542855Y-1294462D01*
X70542855Y-1294462D02*
X70697617Y-1294462D01*
X70697617Y-1294462D02*
X70759522Y-1263510D01*
X70759522Y-1263510D02*
X70790474Y-1232557D01*
X70790474Y-1232557D02*
X70821427Y-1170652D01*
X70821427Y-1170652D02*
X70821427Y-1108748D01*
X70821427Y-1108748D02*
X70790474Y-1046843D01*
X70790474Y-1046843D02*
X70759522Y-1015890D01*
X70759522Y-1015890D02*
X70697617Y-984938D01*
X70697617Y-984938D02*
X70573808Y-953986D01*
X70573808Y-953986D02*
X70511903Y-923033D01*
X70511903Y-923033D02*
X70480950Y-892081D01*
X70480950Y-892081D02*
X70449998Y-830176D01*
X70449998Y-830176D02*
X70449998Y-768271D01*
X70449998Y-768271D02*
X70480950Y-706367D01*
X70480950Y-706367D02*
X70511903Y-675414D01*
X70511903Y-675414D02*
X70573808Y-644462D01*
X70573808Y-644462D02*
X70728569Y-644462D01*
X70728569Y-644462D02*
X70821427Y-675414D01*
X71316665Y-953986D02*
X71409522Y-984938D01*
X71409522Y-984938D02*
X71440475Y-1015890D01*
X71440475Y-1015890D02*
X71471427Y-1077795D01*
X71471427Y-1077795D02*
X71471427Y-1170652D01*
X71471427Y-1170652D02*
X71440475Y-1232557D01*
X71440475Y-1232557D02*
X71409522Y-1263510D01*
X71409522Y-1263510D02*
X71347617Y-1294462D01*
X71347617Y-1294462D02*
X71099998Y-1294462D01*
X71099998Y-1294462D02*
X71099998Y-644462D01*
X71099998Y-644462D02*
X71316665Y-644462D01*
X71316665Y-644462D02*
X71378570Y-675414D01*
X71378570Y-675414D02*
X71409522Y-706367D01*
X71409522Y-706367D02*
X71440475Y-768271D01*
X71440475Y-768271D02*
X71440475Y-830176D01*
X71440475Y-830176D02*
X71409522Y-892081D01*
X71409522Y-892081D02*
X71378570Y-923033D01*
X71378570Y-923033D02*
X71316665Y-953986D01*
X71316665Y-953986D02*
X71099998Y-953986D01*
X99017593Y-18983332D02*
X98550926Y-18983332D01*
X98617593Y-18983332D02*
X98584260Y-18949999D01*
X98584260Y-18949999D02*
X98550926Y-18883332D01*
X98550926Y-18883332D02*
X98550926Y-18783332D01*
X98550926Y-18783332D02*
X98584260Y-18716665D01*
X98584260Y-18716665D02*
X98650926Y-18683332D01*
X98650926Y-18683332D02*
X99017593Y-18683332D01*
X98650926Y-18683332D02*
X98584260Y-18649999D01*
X98584260Y-18649999D02*
X98550926Y-18583332D01*
X98550926Y-18583332D02*
X98550926Y-18483332D01*
X98550926Y-18483332D02*
X98584260Y-18416665D01*
X98584260Y-18416665D02*
X98650926Y-18383332D01*
X98650926Y-18383332D02*
X99017593Y-18383332D01*
X99017593Y-18049999D02*
X98550926Y-18049999D01*
X98317593Y-18049999D02*
X98350926Y-18083332D01*
X98350926Y-18083332D02*
X98384260Y-18049999D01*
X98384260Y-18049999D02*
X98350926Y-18016666D01*
X98350926Y-18016666D02*
X98317593Y-18049999D01*
X98317593Y-18049999D02*
X98384260Y-18049999D01*
X98984260Y-17416666D02*
X99017593Y-17483333D01*
X99017593Y-17483333D02*
X99017593Y-17616666D01*
X99017593Y-17616666D02*
X98984260Y-17683333D01*
X98984260Y-17683333D02*
X98950926Y-17716666D01*
X98950926Y-17716666D02*
X98884260Y-17749999D01*
X98884260Y-17749999D02*
X98684260Y-17749999D01*
X98684260Y-17749999D02*
X98617593Y-17716666D01*
X98617593Y-17716666D02*
X98584260Y-17683333D01*
X98584260Y-17683333D02*
X98550926Y-17616666D01*
X98550926Y-17616666D02*
X98550926Y-17483333D01*
X98550926Y-17483333D02*
X98584260Y-17416666D01*
X99017593Y-17116666D02*
X98550926Y-17116666D01*
X98684260Y-17116666D02*
X98617593Y-17083333D01*
X98617593Y-17083333D02*
X98584260Y-17049999D01*
X98584260Y-17049999D02*
X98550926Y-16983333D01*
X98550926Y-16983333D02*
X98550926Y-16916666D01*
X99017593Y-16583333D02*
X98984260Y-16650000D01*
X98984260Y-16650000D02*
X98950926Y-16683333D01*
X98950926Y-16683333D02*
X98884260Y-16716666D01*
X98884260Y-16716666D02*
X98684260Y-16716666D01*
X98684260Y-16716666D02*
X98617593Y-16683333D01*
X98617593Y-16683333D02*
X98584260Y-16650000D01*
X98584260Y-16650000D02*
X98550926Y-16583333D01*
X98550926Y-16583333D02*
X98550926Y-16483333D01*
X98550926Y-16483333D02*
X98584260Y-16416666D01*
X98584260Y-16416666D02*
X98617593Y-16383333D01*
X98617593Y-16383333D02*
X98684260Y-16350000D01*
X98684260Y-16350000D02*
X98884260Y-16350000D01*
X98884260Y-16350000D02*
X98950926Y-16383333D01*
X98950926Y-16383333D02*
X98984260Y-16416666D01*
X98984260Y-16416666D02*
X99017593Y-16483333D01*
X99017593Y-16483333D02*
X99017593Y-16583333D01*
X98984260Y-16083333D02*
X99017593Y-15983333D01*
X99017593Y-15983333D02*
X99017593Y-15816667D01*
X99017593Y-15816667D02*
X98984260Y-15750000D01*
X98984260Y-15750000D02*
X98950926Y-15716667D01*
X98950926Y-15716667D02*
X98884260Y-15683333D01*
X98884260Y-15683333D02*
X98817593Y-15683333D01*
X98817593Y-15683333D02*
X98750926Y-15716667D01*
X98750926Y-15716667D02*
X98717593Y-15750000D01*
X98717593Y-15750000D02*
X98684260Y-15816667D01*
X98684260Y-15816667D02*
X98650926Y-15950000D01*
X98650926Y-15950000D02*
X98617593Y-16016667D01*
X98617593Y-16016667D02*
X98584260Y-16050000D01*
X98584260Y-16050000D02*
X98517593Y-16083333D01*
X98517593Y-16083333D02*
X98450926Y-16083333D01*
X98450926Y-16083333D02*
X98384260Y-16050000D01*
X98384260Y-16050000D02*
X98350926Y-16016667D01*
X98350926Y-16016667D02*
X98317593Y-15950000D01*
X98317593Y-15950000D02*
X98317593Y-15783333D01*
X98317593Y-15783333D02*
X98350926Y-15683333D01*
X99017593Y-15383333D02*
X98317593Y-15383333D01*
X98317593Y-15383333D02*
X98317593Y-15216666D01*
X98317593Y-15216666D02*
X98350926Y-15116666D01*
X98350926Y-15116666D02*
X98417593Y-15050000D01*
X98417593Y-15050000D02*
X98484260Y-15016666D01*
X98484260Y-15016666D02*
X98617593Y-14983333D01*
X98617593Y-14983333D02*
X98717593Y-14983333D01*
X98717593Y-14983333D02*
X98850926Y-15016666D01*
X98850926Y-15016666D02*
X98917593Y-15050000D01*
X98917593Y-15050000D02*
X98984260Y-15116666D01*
X98984260Y-15116666D02*
X99017593Y-15216666D01*
X99017593Y-15216666D02*
X99017593Y-15383333D01*
D11*
X944391Y-6971428D02*
X944391Y-6704762D01*
X1363439Y-6590476D02*
X1363439Y-6971428D01*
X1363439Y-6971428D02*
X563439Y-6971428D01*
X563439Y-6971428D02*
X563439Y-6590476D01*
X1287248Y-5790475D02*
X1325344Y-5828571D01*
X1325344Y-5828571D02*
X1363439Y-5942856D01*
X1363439Y-5942856D02*
X1363439Y-6019047D01*
X1363439Y-6019047D02*
X1325344Y-6133333D01*
X1325344Y-6133333D02*
X1249153Y-6209523D01*
X1249153Y-6209523D02*
X1172963Y-6247618D01*
X1172963Y-6247618D02*
X1020582Y-6285714D01*
X1020582Y-6285714D02*
X906296Y-6285714D01*
X906296Y-6285714D02*
X753915Y-6247618D01*
X753915Y-6247618D02*
X677724Y-6209523D01*
X677724Y-6209523D02*
X601534Y-6133333D01*
X601534Y-6133333D02*
X563439Y-6019047D01*
X563439Y-6019047D02*
X563439Y-5942856D01*
X563439Y-5942856D02*
X601534Y-5828571D01*
X601534Y-5828571D02*
X639629Y-5790475D01*
X601534Y-5028571D02*
X563439Y-5104761D01*
X563439Y-5104761D02*
X563439Y-5219047D01*
X563439Y-5219047D02*
X601534Y-5333333D01*
X601534Y-5333333D02*
X677724Y-5409523D01*
X677724Y-5409523D02*
X753915Y-5447618D01*
X753915Y-5447618D02*
X906296Y-5485714D01*
X906296Y-5485714D02*
X1020582Y-5485714D01*
X1020582Y-5485714D02*
X1172963Y-5447618D01*
X1172963Y-5447618D02*
X1249153Y-5409523D01*
X1249153Y-5409523D02*
X1325344Y-5333333D01*
X1325344Y-5333333D02*
X1363439Y-5219047D01*
X1363439Y-5219047D02*
X1363439Y-5142856D01*
X1363439Y-5142856D02*
X1325344Y-5028571D01*
X1325344Y-5028571D02*
X1287248Y-4990475D01*
X1287248Y-4990475D02*
X1020582Y-4990475D01*
X1020582Y-4990475D02*
X1020582Y-5142856D01*
%TO.C,J2*%
D10*
X39790000Y-25010000D02*
X40840000Y-25010000D01*
X39790000Y-28340000D02*
X39790000Y-25010000D01*
X40840000Y-25010000D02*
X40840000Y-24800000D01*
X40860000Y-29730000D02*
X41360000Y-29730000D01*
X41360000Y-29730000D02*
X41660000Y-29230000D01*
X41660000Y-29230000D02*
X42340000Y-29230000D01*
X42340000Y-29230000D02*
X42640000Y-29730000D01*
X42640000Y-29730000D02*
X43140000Y-29730000D01*
X44210000Y-25010000D02*
X43160000Y-25010000D01*
X44210000Y-28340000D02*
X44210000Y-25010000D01*
%TO.C,J4*%
X85180000Y-16430000D02*
X85180000Y-19110000D01*
X85180000Y-21410000D02*
X85180000Y-25080000D01*
X85180000Y-27380000D02*
X85180000Y-28610000D01*
X85180000Y-28610000D02*
X95000000Y-28610000D01*
X85900000Y-16430000D02*
X85180000Y-16430000D01*
X89600000Y-16430000D02*
X87300000Y-16430000D01*
X95450000Y-16430000D02*
X91000000Y-16430000D01*
X96820000Y-17910000D02*
X96820000Y-18770000D01*
%TO.C,J1*%
D12*
X950000Y-19300000D02*
X950000Y-18200000D01*
%TO.C,AE1*%
D10*
X95090000Y-4040000D02*
X95090000Y-6360000D01*
X95090000Y-6360000D02*
X99000000Y-6360000D01*
X99000000Y-4040000D02*
X95090000Y-4040000D01*
%TD*%
M02*
