%TF.GenerationSoftware,KiCad,Pcbnew,10.0.5*%
%TF.CreationDate,2026-08-24T21:37:02+08:00*%
%TF.ProjectId,holter_v1,686f6c74-6572-45f7-9631-2e6b69636164,rev?*%
%TF.SameCoordinates,Original*%
%TF.FileFunction,Copper,L4,Bot*%
%TF.FilePolarity,Positive*%
%FSLAX46Y46*%
G04 Gerber Fmt 4.6, Leading zero omitted, Abs format (unit mm)*
G04 Created by KiCad (PCBNEW 10.0.5) date 2026-08-24 21:37:02*
%MOMM*%
%LPD*%
G01*
G04 APERTURE LIST*
G04 Aperture macros list*
%AMRoundRect*
0 Rectangle with rounded corners*
0 $1 Rounding radius*
0 $2 $3 $4 $5 $6 $7 $8 $9 X,Y pos of 4 corners*
0 Add a 4 corners polygon primitive as box body*
4,1,4,$2,$3,$4,$5,$6,$7,$8,$9,$2,$3,0*
0 Add four circle primitives for the rounded corners*
1,1,$1+$1,$2,$3*
1,1,$1+$1,$4,$5*
1,1,$1+$1,$6,$7*
1,1,$1+$1,$8,$9*
0 Add four rect primitives between the rounded corners*
20,1,$1+$1,$2,$3,$4,$5,0*
20,1,$1+$1,$4,$5,$6,$7,0*
20,1,$1+$1,$6,$7,$8,$9,0*
20,1,$1+$1,$8,$9,$2,$3,0*%
G04 Aperture macros list end*
%TA.AperFunction,HeatsinkPad*%
%ADD10C,0.500000*%
%TD*%
%TA.AperFunction,HeatsinkPad*%
%ADD11R,6.400000X6.400000*%
%TD*%
%TA.AperFunction,SMDPad,CuDef*%
%ADD12RoundRect,0.360000X-0.540000X-1.140000X0.540000X-1.140000X0.540000X1.140000X-0.540000X1.140000X0*%
%TD*%
%TA.AperFunction,SMDPad,CuDef*%
%ADD13RoundRect,0.200000X-0.300000X-0.700000X0.300000X-0.700000X0.300000X0.700000X-0.300000X0.700000X0*%
%TD*%
%TA.AperFunction,ViaPad*%
%ADD14C,0.450000*%
%TD*%
%TA.AperFunction,Conductor*%
%ADD15C,0.150000*%
%TD*%
%TA.AperFunction,Conductor*%
%ADD16C,0.100000*%
%TD*%
G04 APERTURE END LIST*
D10*
%TO.P,U2,69,VSS_EP*%
%TO.N,GND*%
X47050000Y-17950000D03*
X48525000Y-17950000D03*
X50000000Y-17950000D03*
X51475000Y-17950000D03*
X52950000Y-17950000D03*
X47050000Y-16475000D03*
X48525000Y-16475000D03*
X50000000Y-16475000D03*
X51475000Y-16475000D03*
X52950000Y-16475000D03*
X47050000Y-15000000D03*
X48525000Y-15000000D03*
X50000000Y-15000000D03*
D11*
X50000000Y-15000000D03*
D10*
X51475000Y-15000000D03*
X52950000Y-15000000D03*
X47050000Y-13525000D03*
X48525000Y-13525000D03*
X50000000Y-13525000D03*
X51475000Y-13525000D03*
X52950000Y-13525000D03*
X47050000Y-12050000D03*
X48525000Y-12050000D03*
X50000000Y-12050000D03*
X51475000Y-12050000D03*
X52950000Y-12050000D03*
%TD*%
D12*
%TO.P,J3,1,VBUS*%
%TO.N,VBUS_RAW*%
X75190000Y-28100000D03*
%TO.P,J3,2,D-*%
%TO.N,USB_DM_POGO*%
X77730000Y-28100000D03*
%TO.P,J3,3,D+*%
%TO.N,USB_DP_POGO*%
X80270000Y-28100000D03*
%TO.P,J3,4,GND*%
%TO.N,GND*%
X82810000Y-28100000D03*
%TD*%
D13*
%TO.P,J5,1,3V0_D*%
%TO.N,3V0_D*%
X52460000Y-28500000D03*
%TO.P,J5,2,GND*%
%TO.N,GND*%
X53730000Y-28500000D03*
%TO.P,J5,3,SWDIO*%
%TO.N,SWDIO*%
X55000000Y-28500000D03*
%TO.P,J5,4,SWCLK*%
%TO.N,SWCLK*%
X56270000Y-28500000D03*
%TO.P,J5,5,NRST*%
%TO.N,NRST*%
X57540000Y-28500000D03*
%TD*%
D14*
%TO.N,ADS_CH2P*%
X26441100Y-18341000D03*
X22488100Y-15968100D03*
%TO.N,GND*%
X51628800Y-27745000D03*
X40000000Y-17500000D03*
X41300000Y-17320000D03*
X51000000Y-21200000D03*
X48500000Y-5000000D03*
X85625000Y-21586800D03*
X58000000Y-9520000D03*
X36000000Y-13500000D03*
X43800000Y-22520000D03*
X84045000Y-26260100D03*
X30100000Y-13400000D03*
X61072400Y-7425700D03*
X49509300Y-27485800D03*
X78170300Y-20848600D03*
X45077800Y-14334000D03*
X59200000Y-11520000D03*
X56000000Y-14500000D03*
X94300000Y-7700000D03*
X51500000Y-5000000D03*
X31700000Y-14200000D03*
X90500000Y-4000000D03*
X59510000Y-18500000D03*
%TO.N,3V0_D*%
X60500000Y-18700000D03*
X54288800Y-9377400D03*
X54872000Y-13967200D03*
X56200000Y-21000000D03*
X53070500Y-21158300D03*
X41424100Y-22331900D03*
X78232500Y-22965600D03*
X78389700Y-9123300D03*
X47897200Y-22644400D03*
X69128700Y-24097200D03*
X28570200Y-9863300D03*
X49816900Y-28500000D03*
X34711100Y-22879300D03*
X62500000Y-11341300D03*
X55250800Y-15288400D03*
X59161200Y-12719800D03*
X58300000Y-18700000D03*
X84391100Y-4200000D03*
X33419500Y-2400000D03*
%TO.N,ADS_RLDOUT*%
X30133000Y-17415900D03*
X14408700Y-25000000D03*
X33660800Y-24707000D03*
%TO.N,ADS_RLDIN*%
X31831900Y-16200000D03*
X35882200Y-25104800D03*
%TO.N,PWR_USB_N*%
X63557100Y-23258900D03*
X71729300Y-3842100D03*
X65693900Y-19852200D03*
%TO.N,ADS_RLDINV*%
X30094600Y-16594600D03*
X34543400Y-23931700D03*
%TO.N,3V0_A*%
X72902000Y-22952100D03*
X13931500Y-10050000D03*
X13924600Y-20022700D03*
X13933000Y-15050000D03*
X28578000Y-18238300D03*
X38994700Y-13210000D03*
X22179500Y-23298700D03*
X38389800Y-23203100D03*
%TO.N,RTC_HOLD*%
X46074400Y-18804500D03*
X39258000Y-4135600D03*
%TO.N,ADS_CH1N*%
X25164900Y-17000000D03*
X22624100Y-4635900D03*
%TO.N,ADS_CLK*%
X26873700Y-11826300D03*
X74170500Y-3000000D03*
%TO.N,ADS_AVDD1*%
X38508000Y-22504400D03*
X32214500Y-13032000D03*
%TO.N,SD_DAT3*%
X79110800Y-14368900D03*
X83668100Y-14690000D03*
X95556400Y-20495000D03*
%TO.N,BAT_ADC*%
X52430400Y-20915000D03*
X30452200Y-28630900D03*
%TO.N,ADS_VCAP3*%
X33834300Y-10943300D03*
X33625700Y-7964000D03*
%TO.N,SD_DAT2*%
X95556600Y-19395000D03*
X83499300Y-11990700D03*
%TO.N,SD_CMD*%
X85252900Y-16993900D03*
X95549700Y-21595000D03*
%TO.N,SD_CLK*%
X79015200Y-15694800D03*
X95559800Y-23795000D03*
%TO.N,SD_DAT0*%
X83523700Y-18637000D03*
X95555800Y-25995000D03*
%TO.N,SD_DAT1*%
X95561300Y-27045000D03*
X83655900Y-21173100D03*
%TO.N,SD_DETECT*%
X89453400Y-16760000D03*
X52641500Y-22186300D03*
X81770800Y-23984100D03*
%TO.N,ADS_PWDN*%
X53700000Y-8600000D03*
X24621400Y-15001300D03*
X43488700Y-9001300D03*
%TO.N,BOOT0*%
X40800000Y-11800000D03*
X41400000Y-20800000D03*
X41200000Y-8400000D03*
X68200000Y-4600000D03*
X44300000Y-21500000D03*
X48400000Y-20300000D03*
X39100000Y-18100000D03*
%TO.N,CABLE_SHIELD*%
X2382100Y-11763800D03*
X6946800Y-28300000D03*
%TO.N,ADS_CH4N*%
X34986100Y-12003900D03*
X27720800Y-17385800D03*
%TO.N,RL_ELEC*%
X6763500Y-24110900D03*
X2377900Y-14400000D03*
%TO.N,ADS_CH1P*%
X25172900Y-17800000D03*
X21497300Y-10982700D03*
%TO.N,SD_PWR_EN*%
X51260500Y-19719900D03*
X70742000Y-13904400D03*
%TO.N,USB_DP_POGO*%
X82100900Y-26269100D03*
X81652100Y-20700000D03*
%TO.N,USB_DM_POGO*%
X79218000Y-22754200D03*
%TO.N,3V3_USB*%
X46890500Y-21632700D03*
X45247800Y-13122200D03*
X71768300Y-22877300D03*
%TO.N,SD_CT*%
X74169600Y-13093200D03*
X71347400Y-9446100D03*
%TO.N,ADS_GPIO1_TIE*%
X39913300Y-11020200D03*
X26925700Y-14225700D03*
%TO.N,VBUS*%
X63838200Y-26063200D03*
X75813000Y-21775000D03*
X62075300Y-25050000D03*
X78550800Y-18538200D03*
X61028300Y-22436200D03*
%TO.N,MUX_PR1*%
X61510000Y-21144000D03*
X60624600Y-25550000D03*
%TO.N,BAT_PROT*%
X23987200Y-27802800D03*
X49677900Y-29444100D03*
%TO.N,ADS_VCAP1*%
X23843200Y-14599600D03*
X27761000Y-8814000D03*
%TO.N,BAT_GATE*%
X49142000Y-23550000D03*
X48665600Y-28700000D03*
%TO.N,ADS_CS*%
X27709100Y-12607400D03*
X41415400Y-19688000D03*
X55350000Y-18400000D03*
X34133700Y-13204700D03*
%TO.N,ADS_GPIO2_TIE*%
X41186900Y-13023100D03*
X29266900Y-12619900D03*
%TO.N,ADS_CH4P*%
X26996500Y-18279100D03*
X34885500Y-9339900D03*
%TO.N,IMU_INT1*%
X57185300Y-15283700D03*
X61223300Y-9730000D03*
X54700000Y-15400000D03*
%TO.N,IMU_INT2*%
X54700000Y-14800000D03*
X64800000Y-8750000D03*
%TO.N,IMU_SCL*%
X42400000Y-22400000D03*
X62621000Y-12500000D03*
X41400000Y-21400000D03*
X55700000Y-21700000D03*
X57400000Y-23400000D03*
X58800000Y-17000000D03*
X63075000Y-6772400D03*
X48800000Y-19700000D03*
%TO.N,IMU_SDA*%
X64052900Y-6506000D03*
X64320800Y-11842800D03*
X49200000Y-20300000D03*
%TO.N,NRST*%
X54452600Y-24705400D03*
%TO.N,LED_STATUS_N*%
X45283900Y-16848700D03*
X83303000Y-4697200D03*
%TO.N,ADS_WCT*%
X30200300Y-24595200D03*
X29271300Y-16600000D03*
%TO.N,ADS_DRDY*%
X50400000Y-19700000D03*
X57700000Y-26500000D03*
X29300000Y-14200000D03*
X53400000Y-26500000D03*
X53300000Y-22100000D03*
X28800000Y-19600000D03*
%TO.N,ADS_GPIO4_TIE*%
X33289600Y-14758800D03*
X26900000Y-15050000D03*
X40046300Y-19707200D03*
%TO.N,ADS_GPIO3_TIE*%
X27700000Y-13450000D03*
X38500000Y-15300000D03*
X36600000Y-13400000D03*
%TO.N,ADS_MISO*%
X34011400Y-12400200D03*
X43916800Y-18376700D03*
X55350000Y-17000000D03*
X28443800Y-11109500D03*
%TO.N,ADS_CH3P*%
X27695300Y-18172900D03*
X22645000Y-20392600D03*
%TO.N,ADS_RESP_MODN*%
X30086700Y-15776700D03*
X34660300Y-18103600D03*
%TO.N,ADS_SCLK*%
X26200000Y-9000000D03*
X26600000Y-10000000D03*
X56500000Y-16700000D03*
X57700000Y-11600000D03*
X60500000Y-15300000D03*
X59600000Y-13800000D03*
X55800000Y-9200000D03*
%TO.N,ADS_CH2N*%
X25649800Y-18749900D03*
X20990400Y-6465400D03*
%TO.N,ADS_VCAP4*%
X26148000Y-16599000D03*
X35822300Y-7275000D03*
%TO.N,ADS_RESP_MODP*%
X34266000Y-14579700D03*
X23694400Y-16035000D03*
%TO.N,ADS_RESET*%
X25346000Y-14191900D03*
X53100000Y-9200000D03*
X41736400Y-11832000D03*
%TO.N,ADS_START*%
X44412400Y-20880900D03*
X42342900Y-16419900D03*
X30103800Y-12627300D03*
X26905100Y-12638300D03*
X50000000Y-20200000D03*
%TO.N,ADS_VREFP*%
X24814700Y-7833500D03*
X25170900Y-16274200D03*
%TO.N,ADS_VCAP2*%
X29968100Y-7543100D03*
X24819800Y-13461700D03*
%TO.N,ADS_MOSI*%
X33700000Y-8800000D03*
X45900000Y-10850000D03*
X32619700Y-13630200D03*
X39700000Y-15000000D03*
X25229200Y-12720600D03*
X54713300Y-16600000D03*
X32900000Y-12700000D03*
%TO.N,RA_ELEC*%
X2399500Y-18000000D03*
X6319800Y-5292200D03*
%TO.N,SD_MISO_MCU*%
X71111000Y-10804300D03*
X79670200Y-15284700D03*
X47750000Y-10100000D03*
%TO.N,USB_VBUS_SENSE*%
X56977400Y-18240000D03*
X55198200Y-16186700D03*
%TO.N,SD_CS_MCU*%
X70986300Y-8292100D03*
X52859400Y-8092600D03*
X68694100Y-8214000D03*
X76882800Y-14000000D03*
X46825000Y-8583400D03*
%TO.N,USB_DM*%
X72461100Y-14306100D03*
X45512800Y-11334400D03*
X78506100Y-19991100D03*
%TO.N,SD_SCK_MCU*%
X65900000Y-9500000D03*
X69900000Y-13800000D03*
X48350000Y-10400000D03*
%TO.N,USB_DP*%
X71312800Y-11955100D03*
X80471000Y-19942400D03*
X45902400Y-10104700D03*
X44754800Y-11912800D03*
X70281800Y-11955100D03*
X48789000Y-9689300D03*
%TO.N,SWO*%
X44219400Y-14525100D03*
X46018100Y-9000000D03*
X77150100Y-3135000D03*
X44999900Y-9000000D03*
%TO.N,VBUS_RAW*%
X73840500Y-27646000D03*
X76944500Y-18000000D03*
%TO.N,SD_MOSI_MCU*%
X80454300Y-13465900D03*
X47037300Y-10252800D03*
X70275500Y-3329400D03*
X71048400Y-4070700D03*
%TO.N,SWDIO*%
X45500000Y-12600000D03*
%TO.N,SWCLK*%
X55303300Y-27265700D03*
X46294300Y-22362300D03*
X45159400Y-13703800D03*
X48885800Y-22919000D03*
X43682700Y-14073000D03*
%TD*%
%TO.N,GND*%
D15*
X30300000Y-14050000D02*
X33000000Y-14050000D01*
X33299999Y-13700000D02*
X35800000Y-13700000D01*
X53730000Y-28232400D02*
X52920100Y-27422500D01*
X78908500Y-21586800D02*
X78170300Y-20848600D01*
X84045000Y-26865000D02*
X84045000Y-26260100D01*
X52920100Y-27422500D02*
X51692100Y-27422500D01*
X85625000Y-21586800D02*
X78908500Y-21586800D01*
X51628800Y-27485800D02*
X51628800Y-27745000D01*
X45077800Y-14334000D02*
X46241000Y-14334000D01*
X41200000Y-17300000D02*
X41300000Y-17320000D01*
X47050000Y-16475000D02*
X46205000Y-17320000D01*
X82810000Y-28100000D02*
X84045000Y-26865000D01*
X53730000Y-28500000D02*
X53730000Y-28232400D01*
X40000000Y-17500000D02*
X40200000Y-17300000D01*
X51628800Y-27485800D02*
X49509300Y-27485800D01*
X30100000Y-13400000D02*
X30300000Y-13600000D01*
X46241000Y-14334000D02*
X47050000Y-13525000D01*
X30300000Y-13600000D02*
X30300000Y-14050000D01*
X35800000Y-13700000D02*
X36000000Y-13500000D01*
X51692100Y-27422500D02*
X51628800Y-27485800D01*
X46205000Y-17320000D02*
X41300000Y-17320000D01*
X40200000Y-17300000D02*
X41200000Y-17300000D01*
X33000000Y-14050000D02*
X33299999Y-13700000D01*
X31700000Y-14200000D02*
X31700000Y-14050000D01*
%TO.N,3V0_D*%
X77100900Y-24097200D02*
X69128700Y-24097200D01*
X47334200Y-22644400D02*
X47897200Y-22644400D01*
X46609000Y-21919200D02*
X47334200Y-22644400D01*
X41194800Y-22102600D02*
X41424100Y-22331900D01*
X35487800Y-22102600D02*
X41194800Y-22102600D01*
X58300000Y-18700000D02*
X56200000Y-20800000D01*
X60200000Y-19000000D02*
X58600000Y-19000000D01*
X41424100Y-22331900D02*
X41836800Y-21919200D01*
X78232500Y-22965600D02*
X77100900Y-24097200D01*
X58600000Y-19000000D02*
X58300000Y-18700000D01*
X56200000Y-20800000D02*
X56200000Y-21000000D01*
X34711100Y-22879300D02*
X35487800Y-22102600D01*
X52460000Y-28500000D02*
X49816900Y-28500000D01*
X41836800Y-21919200D02*
X46609000Y-21919200D01*
X60500000Y-18700000D02*
X60200000Y-19000000D01*
%TO.N,ADS_PWDN*%
D16*
X53700000Y-8600000D02*
X53700000Y-8100000D01*
X53700000Y-8100000D02*
X53200000Y-7600000D01*
X53200000Y-7600000D02*
X44900000Y-7600000D01*
X44900000Y-7600000D02*
X43488700Y-9001300D01*
%TO.N,BOOT0*%
X52400000Y-9000000D02*
X52600000Y-8800000D01*
X48400000Y-20300000D02*
X48250000Y-20450000D01*
X44000000Y-20450000D02*
X44000000Y-21500000D01*
X44000000Y-21500000D02*
X44300000Y-21500000D01*
X48250000Y-20450000D02*
X44000000Y-20450000D01*
X55000000Y-9000000D02*
X55600000Y-9600000D01*
X62300000Y-4600000D02*
X68200000Y-4600000D01*
X46700000Y-9000000D02*
X52400000Y-9000000D01*
X46300000Y-9400000D02*
X46700000Y-9000000D01*
X41200000Y-8400000D02*
X42200000Y-9400000D01*
X52600000Y-8800000D02*
X53300000Y-8800000D01*
X53500000Y-9000000D02*
X55000000Y-9000000D01*
X57300000Y-9600000D02*
X62300000Y-4600000D01*
X53300000Y-8800000D02*
X53500000Y-9000000D01*
X40800000Y-11800000D02*
X41200000Y-11400000D01*
X55600000Y-9600000D02*
X57300000Y-9600000D01*
X42200000Y-9400000D02*
X46300000Y-9400000D01*
X41200000Y-11400000D02*
X41200000Y-8400000D01*
%TO.N,USB_DP_POGO*%
D15*
X80270000Y-28100000D02*
X82100900Y-26269100D01*
%TO.N,USB_DM_POGO*%
X77730000Y-28100000D02*
X77730000Y-24242200D01*
X77730000Y-24242200D02*
X79218000Y-22754200D01*
%TO.N,3V3_USB*%
D16*
X49745700Y-21632700D02*
X46890500Y-21632700D01*
X50990300Y-22877300D02*
X49745700Y-21632700D01*
X71768300Y-22877300D02*
X50990300Y-22877300D01*
%TO.N,ADS_GPIO1_TIE*%
X26925700Y-14225700D02*
X26100000Y-13400000D01*
X26100000Y-13400000D02*
X26100000Y-11400000D01*
X35900000Y-11000000D02*
X39800000Y-11000000D01*
X39800000Y-11000000D02*
X39913300Y-11020200D01*
X28100000Y-9400000D02*
X34300000Y-9400000D01*
X26100000Y-11400000D02*
X28100000Y-9400000D01*
X34300000Y-9400000D02*
X35900000Y-11000000D01*
%TO.N,ADS_CS*%
D15*
X27709100Y-12607400D02*
X28110200Y-12206300D01*
X28110200Y-12206300D02*
X33135300Y-12206300D01*
D16*
X46600000Y-19000000D02*
X45900000Y-19700000D01*
X45900000Y-19700000D02*
X41400000Y-19700000D01*
D15*
X33135300Y-12206300D02*
X34133700Y-13204700D01*
D16*
X55350000Y-18400000D02*
X54800000Y-19000000D01*
X54800000Y-19000000D02*
X46600000Y-19000000D01*
X41400000Y-19700000D02*
X41415400Y-19688000D01*
%TO.N,IMU_INT1*%
X55000000Y-15700000D02*
X56800000Y-15700000D01*
X56800000Y-15700000D02*
X57185300Y-15283700D01*
X54700000Y-15400000D02*
X55000000Y-15700000D01*
%TO.N,IMU_INT2*%
X55600000Y-14900000D02*
X55700000Y-14900000D01*
X55700000Y-14900000D02*
X55800000Y-15000000D01*
X72800000Y-14800000D02*
X73000000Y-14600000D01*
X56700000Y-15000000D02*
X56900000Y-14800000D01*
X54700000Y-14800000D02*
X55500000Y-14800000D01*
X69900000Y-8800000D02*
X64800000Y-8750000D01*
X73000000Y-11900000D02*
X69900000Y-8800000D01*
X56900000Y-14800000D02*
X72800000Y-14800000D01*
X55800000Y-15000000D02*
X56700000Y-15000000D01*
X55500000Y-14800000D02*
X55600000Y-14900000D01*
X73000000Y-14600000D02*
X73000000Y-11900000D01*
%TO.N,IMU_SCL*%
X48100000Y-23100000D02*
X48500000Y-22700000D01*
X45900000Y-20100000D02*
X42700000Y-20100000D01*
X42400000Y-22400000D02*
X43100000Y-23100000D01*
X51100000Y-23400000D02*
X57400000Y-23400000D01*
X43100000Y-23100000D02*
X48100000Y-23100000D01*
X55700000Y-21700000D02*
X55700000Y-20200000D01*
X48500000Y-22600000D02*
X48700000Y-22400000D01*
X55700000Y-20200000D02*
X58800000Y-17100000D01*
X48800000Y-19700000D02*
X46300000Y-19700000D01*
X58800000Y-17100000D02*
X58800000Y-17000000D01*
X48700000Y-22400000D02*
X50100000Y-22400000D01*
X46300000Y-19700000D02*
X45900000Y-20100000D01*
X48500000Y-22700000D02*
X48500000Y-22600000D01*
X50100000Y-22400000D02*
X51100000Y-23400000D01*
X42700000Y-20100000D02*
X41400000Y-21400000D01*
%TO.N,NRST*%
D15*
X57540000Y-27792800D02*
X54452600Y-24705400D01*
X57540000Y-28500000D02*
X57540000Y-27792800D01*
%TO.N,LED_STATUS_N*%
X45000000Y-17000000D02*
X41800000Y-17000000D01*
X41600000Y-16800000D02*
X39800000Y-16800000D01*
X68800000Y-23400000D02*
X72200000Y-23400000D01*
X34200000Y-22400000D02*
X34200000Y-23200000D01*
X72400000Y-23200000D02*
X72400000Y-16200000D01*
X45283900Y-16848700D02*
X45000000Y-17000000D01*
X37600000Y-23400000D02*
X38400000Y-24200000D01*
X38400000Y-24200000D02*
X68000000Y-24200000D01*
X83400000Y-5200000D02*
X83303000Y-4697200D01*
X41800000Y-17000000D02*
X41600000Y-16800000D01*
X34200000Y-23200000D02*
X34400000Y-23400000D01*
X39800000Y-16800000D02*
X34200000Y-22400000D01*
X72200000Y-23400000D02*
X72400000Y-23200000D01*
X34400000Y-23400000D02*
X37600000Y-23400000D01*
X72400000Y-16200000D02*
X83400000Y-5200000D01*
X68000000Y-24200000D02*
X68800000Y-23400000D01*
%TO.N,ADS_DRDY*%
D16*
X52100000Y-21400000D02*
X50400000Y-19700000D01*
X34800000Y-26500000D02*
X53400000Y-26500000D01*
X53300000Y-22100000D02*
X52600000Y-21400000D01*
X28800000Y-20500000D02*
X34800000Y-26500000D01*
X52600000Y-21400000D02*
X52100000Y-21400000D01*
X28800000Y-19600000D02*
X28800000Y-20500000D01*
%TO.N,ADS_GPIO4_TIE*%
X31900000Y-14950000D02*
X32100000Y-14806700D01*
X26900000Y-15050000D02*
X27000000Y-14950000D01*
X27000000Y-14950000D02*
X31900000Y-14950000D01*
D15*
X32315200Y-14806700D02*
X33241700Y-14806700D01*
D16*
X32100000Y-14806700D02*
X32315199Y-14806700D01*
D15*
X33241700Y-14806700D02*
X33289600Y-14758800D01*
%TO.N,ADS_GPIO3_TIE*%
D16*
X34300000Y-12000000D02*
X35300000Y-13000000D01*
X27400000Y-10600000D02*
X32799999Y-10600000D01*
X29650000Y-13450000D02*
X29500000Y-13400000D01*
X36200000Y-13000000D02*
X36600000Y-13400000D01*
X27000000Y-13400000D02*
X26400000Y-12800000D01*
X29500000Y-13400000D02*
X27000000Y-13400000D01*
X27700000Y-13450000D02*
X29650000Y-13450000D01*
X26400000Y-12800000D02*
X26400000Y-11600000D01*
X32799999Y-10600000D02*
X34200000Y-12000000D01*
X26400000Y-11600000D02*
X27400000Y-10600000D01*
X34200000Y-12000000D02*
X34300000Y-12000000D01*
X35300000Y-13000000D02*
X36200000Y-13000000D01*
%TO.N,ADS_MISO*%
X46500000Y-18500000D02*
X46300000Y-18300000D01*
X46300000Y-18300000D02*
X44000000Y-18300000D01*
X53900000Y-18500000D02*
X46500000Y-18500000D01*
D15*
X34011400Y-12400200D02*
X32720700Y-11109500D01*
D16*
X55350000Y-17000000D02*
X53900000Y-18500000D01*
X44000000Y-18300000D02*
X43916800Y-18376700D01*
D15*
X32720700Y-11109500D02*
X28443800Y-11109500D01*
%TO.N,ADS_SCLK*%
D16*
X35600000Y-7800000D02*
X44200000Y-7800000D01*
X33400000Y-7500000D02*
X35300000Y-7500000D01*
X35300000Y-7500000D02*
X35600000Y-7800000D01*
X60500000Y-15300000D02*
X57900000Y-15300000D01*
X53900000Y-7300000D02*
X55800000Y-9200000D01*
X32900000Y-8000000D02*
X33400000Y-7500000D01*
X44200000Y-7800000D02*
X44700000Y-7300000D01*
X27200000Y-8000000D02*
X32900000Y-8000000D01*
X57700000Y-11900000D02*
X59600000Y-13800000D01*
X57900000Y-15300000D02*
X56500000Y-16700000D01*
X26200000Y-9000000D02*
X27200000Y-8000000D01*
X57700000Y-11600000D02*
X57700000Y-11900000D01*
X44700000Y-7300000D02*
X53900000Y-7300000D01*
%TO.N,ADS_RESP_MODP*%
D15*
X27200000Y-15546000D02*
X27450000Y-15296000D01*
X23694400Y-16035000D02*
X24155800Y-16035000D01*
X26600000Y-15546000D02*
X27200000Y-15546000D01*
X24894800Y-15296000D02*
X26350000Y-15296000D01*
X33549700Y-15296000D02*
X34266000Y-14579700D01*
X24155800Y-16035000D02*
X24894800Y-15296000D01*
X26350000Y-15296000D02*
X26600000Y-15546000D01*
X27450000Y-15296000D02*
X33549700Y-15296000D01*
%TO.N,ADS_RESET*%
D16*
X33085800Y-14430000D02*
X32159300Y-14430000D01*
D15*
X46703100Y-9425100D02*
X46703100Y-9662700D01*
D16*
X46703100Y-9662700D02*
X43905700Y-9662700D01*
D15*
X52055500Y-9287500D02*
X46978300Y-9287500D01*
D16*
X32159300Y-14430000D02*
X31973800Y-14615500D01*
X39415400Y-14153000D02*
X33362800Y-14153000D01*
X46840700Y-9425100D02*
X46703100Y-9425100D01*
X25769600Y-14615500D02*
X25346000Y-14191900D01*
X31973800Y-14615500D02*
X25769600Y-14615500D01*
X43905700Y-9662700D02*
X41736400Y-11832000D01*
X41736400Y-11832000D02*
X39415400Y-14153000D01*
X33362800Y-14153000D02*
X33085800Y-14430000D01*
D15*
X46978300Y-9287500D02*
X46840700Y-9425100D01*
D16*
X53100000Y-9200000D02*
X52055500Y-9287500D01*
%TO.N,ADS_START*%
D15*
X29692600Y-13038500D02*
X27305300Y-13038500D01*
D16*
X50298300Y-20798300D02*
X50298300Y-20880900D01*
D15*
X30103800Y-12627300D02*
X29692600Y-13038500D01*
X44412400Y-20880900D02*
X50298300Y-20880900D01*
D16*
X50000000Y-20200000D02*
X50000000Y-20500000D01*
X50000000Y-20500000D02*
X50298300Y-20798300D01*
D15*
X27305300Y-13038500D02*
X26905100Y-12638300D01*
%TO.N,ADS_MOSI*%
D16*
X32900000Y-12700000D02*
X32900000Y-13300000D01*
X25200000Y-10700000D02*
X27600000Y-8300000D01*
X32900000Y-13300000D02*
X32619700Y-13630200D01*
X27600000Y-8300000D02*
X33200000Y-8300000D01*
X33200000Y-8300000D02*
X33700000Y-8800000D01*
X44100000Y-10800000D02*
X39900000Y-15000000D01*
X25200000Y-12600000D02*
X25200000Y-10700000D01*
X39900000Y-15000000D02*
X39700000Y-15000000D01*
X45900000Y-10850000D02*
X44100000Y-10800000D01*
X25229200Y-12720600D02*
X25200000Y-12600000D01*
%TO.N,SD_MISO_MCU*%
X71111000Y-10804300D02*
X48616800Y-10804300D01*
X47750000Y-10100000D02*
X47750000Y-10804300D01*
X47750000Y-10804300D02*
X48616800Y-10804300D01*
%TO.N,USB_VBUS_SENSE*%
X57000000Y-17900000D02*
X57000000Y-18100000D01*
X57000000Y-18100000D02*
X56977400Y-18240000D01*
X55198200Y-16186699D02*
X57000000Y-17900000D01*
%TO.N,SD_CS_MCU*%
D15*
X68694100Y-8214000D02*
X70908200Y-8214000D01*
X46825000Y-8583300D02*
X46825000Y-8583400D01*
X52859400Y-8092600D02*
X52368700Y-8583300D01*
X52368700Y-8583300D02*
X46825000Y-8583300D01*
X70908200Y-8214000D02*
X70986300Y-8292100D01*
%TO.N,USB_DM*%
X56256800Y-11334400D02*
X59228500Y-14306100D01*
X45512800Y-11334400D02*
X56256800Y-11334400D01*
X59228500Y-14306100D02*
X72461100Y-14306100D01*
%TO.N,SD_SCK_MCU*%
D16*
X65000000Y-10400000D02*
X65900000Y-9500000D01*
X48350000Y-10400000D02*
X65000000Y-10400000D01*
%TO.N,USB_DP*%
D15*
X46617100Y-10104700D02*
X45902400Y-10104700D01*
X48789000Y-9689300D02*
X47032500Y-9689300D01*
X47032500Y-9689300D02*
X46617100Y-10104700D01*
%TO.N,SWO*%
X44999900Y-9000000D02*
X46018100Y-9000000D01*
%TO.N,VBUS_RAW*%
X74294500Y-28100000D02*
X73840500Y-27646000D01*
X75190000Y-28100000D02*
X74294500Y-28100000D01*
%TO.N,SWDIO*%
X34200000Y-24400000D02*
X34200000Y-24600000D01*
X33800000Y-21800000D02*
X33800000Y-24000000D01*
X54800000Y-28200000D02*
X55000000Y-28500000D01*
X33800000Y-24000000D02*
X34000000Y-24200000D01*
X54800000Y-27200000D02*
X54800000Y-28200000D01*
X45500000Y-12600000D02*
X43000000Y-12600000D01*
X43000000Y-12600000D02*
X33800000Y-21800000D01*
X52200000Y-24600000D02*
X54800000Y-27200000D01*
X34200000Y-24600000D02*
X52200000Y-24600000D01*
X34000000Y-24200000D02*
X34000000Y-24400000D01*
X34000000Y-24400000D02*
X34200000Y-24400000D01*
%TO.N,SWCLK*%
X56270000Y-28232400D02*
X55303300Y-27265700D01*
X44051900Y-13703800D02*
X45159400Y-13703800D01*
X43682700Y-14073000D02*
X44051900Y-13703800D01*
X56270000Y-28500000D02*
X56270000Y-28232400D01*
%TD*%
M02*
