M48
; DRILL file KiCad 10.0.5 date 2026-08-24T21:37:02
; FORMAT={-:-/ absolute / metric / decimal}
; #@! TF.CreationDate,2026-08-24T21:37:02+08:00
; #@! TF.GenerationSoftware,Kicad,Pcbnew,10.0.5
; #@! TF.FileFunction,Plated,1,4,PTH
FMAT,2
METRIC
; #@! TA.AperFunction,Plated,PTH,ViaDrill
T1C0.200
; #@! TA.AperFunction,Plated,PTH,ComponentDrill
T2C0.200
%
G90
G05
T1
X2.378Y-14.4
X2.382Y-11.764
X2.399Y-18.0
X6.32Y-5.292
X6.763Y-24.111
X6.947Y-28.3
X13.925Y-20.023
X13.931Y-10.05
X13.933Y-15.05
X14.409Y-25.0
X20.99Y-6.465
X21.497Y-10.983
X22.179Y-23.299
X22.488Y-15.968
X22.624Y-4.636
X22.645Y-20.393
X23.694Y-16.035
X23.843Y-14.6
X23.987Y-27.803
X24.621Y-15.001
X24.815Y-7.833
X24.82Y-13.462
X25.165Y-17.0
X25.171Y-16.274
X25.173Y-17.8
X25.229Y-12.721
X25.346Y-14.192
X25.65Y-18.75
X26.148Y-16.599
X26.2Y-9.0
X26.441Y-18.341
X26.6Y-10.0
X26.874Y-11.826
X26.9Y-15.05
X26.905Y-12.638
X26.926Y-14.226
X26.996Y-18.279
X27.695Y-18.173
X27.7Y-13.45
X27.709Y-12.607
X27.721Y-17.386
X27.761Y-8.814
X28.444Y-11.109
X28.57Y-9.863
X28.578Y-18.238
X28.8Y-19.6
X29.267Y-12.62
X29.271Y-16.6
X29.3Y-14.2
X29.968Y-7.543
X30.087Y-15.777
X30.095Y-16.595
X30.1Y-13.4
X30.104Y-12.627
X30.133Y-17.416
X30.2Y-24.595
X30.452Y-28.631
X31.7Y-14.2
X31.832Y-16.2
X32.215Y-13.032
X32.62Y-13.63
X32.9Y-12.7
X33.29Y-14.759
X33.419Y-2.4
X33.626Y-7.964
X33.661Y-24.707
X33.7Y-8.8
X33.834Y-10.943
X34.011Y-12.4
X34.134Y-13.205
X34.266Y-14.58
X34.543Y-23.932
X34.66Y-18.104
X34.711Y-22.879
X34.886Y-9.34
X34.986Y-12.004
X35.822Y-7.275
X35.882Y-25.105
X36.0Y-13.5
X36.6Y-13.4
X38.39Y-23.203
X38.5Y-15.3
X38.508Y-22.504
X38.995Y-13.21
X39.1Y-18.1
X39.258Y-4.136
X39.7Y-15.0
X39.913Y-11.02
X40.0Y-17.5
X40.046Y-19.707
X40.8Y-11.8
X41.187Y-13.023
X41.2Y-8.4
X41.3Y-17.32
X41.4Y-20.8
X41.4Y-21.4
X41.415Y-19.688
X41.424Y-22.332
X41.736Y-11.832
X42.343Y-16.42
X42.4Y-22.4
X43.489Y-9.001
X43.683Y-14.073
X43.8Y-22.52
X43.917Y-18.377
X44.219Y-14.525
X44.3Y-21.5
X44.412Y-20.881
X44.755Y-11.913
X45.0Y-9.0
X45.078Y-14.334
X45.159Y-13.704
X45.248Y-13.122
X45.284Y-16.849
X45.5Y-12.6
X45.513Y-11.334
X45.9Y-10.85
X45.902Y-10.105
X46.018Y-9.0
X46.074Y-18.805
X46.294Y-22.362
X46.825Y-8.583
X46.89Y-21.633
X47.037Y-10.253
X47.75Y-10.1
X47.897Y-22.644
X48.35Y-10.4
X48.4Y-20.3
X48.5Y-5.0
X48.666Y-28.7
X48.789Y-9.689
X48.8Y-19.7
X48.886Y-22.919
X49.142Y-23.55
X49.2Y-20.3
X49.509Y-27.486
X49.678Y-29.444
X49.817Y-28.5
X50.0Y-20.2
X50.4Y-19.7
X51.0Y-21.2
X51.261Y-19.72
X51.5Y-5.0
X51.629Y-27.745
X52.43Y-20.915
X52.642Y-22.186
X52.859Y-8.093
X53.07Y-21.158
X53.1Y-9.2
X53.3Y-22.1
X53.4Y-26.5
X53.7Y-8.6
X54.289Y-9.377
X54.453Y-24.705
X54.7Y-14.8
X54.7Y-15.4
X54.713Y-16.6
X54.872Y-13.967
X55.198Y-16.187
X55.251Y-15.288
X55.303Y-27.266
X55.35Y-17.0
X55.35Y-18.4
X55.7Y-21.7
X55.8Y-9.2
X56.0Y-14.5
X56.2Y-21.0
X56.5Y-16.7
X56.977Y-18.24
X57.185Y-15.284
X57.4Y-23.4
X57.7Y-11.6
X57.7Y-26.5
X58.0Y-9.52
X58.3Y-18.7
X58.8Y-17.0
X59.161Y-12.72
X59.2Y-11.52
X59.51Y-18.5
X59.6Y-13.8
X60.5Y-15.3
X60.5Y-18.7
X60.625Y-25.55
X61.028Y-22.436
X61.072Y-7.426
X61.223Y-9.73
X61.51Y-21.144
X62.075Y-25.05
X62.5Y-11.341
X62.621Y-12.5
X63.075Y-6.772
X63.557Y-23.259
X63.838Y-26.063
X64.053Y-6.506
X64.321Y-11.843
X64.8Y-8.75
X65.694Y-19.852
X65.9Y-9.5
X68.2Y-4.6
X68.694Y-8.214
X69.129Y-24.097
X69.9Y-13.8
X70.275Y-3.329
X70.282Y-11.955
X70.742Y-13.904
X70.986Y-8.292
X71.048Y-4.071
X71.111Y-10.804
X71.313Y-11.955
X71.347Y-9.446
X71.729Y-3.842
X71.768Y-22.877
X72.461Y-14.306
X72.902Y-22.952
X73.84Y-27.646
X74.17Y-13.093
X74.17Y-3.0
X75.813Y-21.775
X76.883Y-14.0
X76.944Y-18.0
X77.15Y-3.135
X78.17Y-20.849
X78.233Y-22.966
X78.39Y-9.123
X78.506Y-19.991
X78.551Y-18.538
X79.015Y-15.695
X79.111Y-14.369
X79.218Y-22.754
X79.67Y-15.285
X80.454Y-13.466
X80.471Y-19.942
X81.652Y-20.7
X81.771Y-23.984
X82.101Y-26.269
X83.303Y-4.697
X83.499Y-11.991
X83.524Y-18.637
X83.656Y-21.173
X83.668Y-14.69
X84.045Y-26.26
X84.391Y-4.2
X85.253Y-16.994
X85.625Y-21.587
X89.453Y-16.76
X90.5Y-4.0
X94.3Y-7.7
X95.55Y-21.595
X95.556Y-25.995
X95.556Y-20.495
X95.557Y-19.395
X95.56Y-23.795
X95.561Y-27.045
T2
X47.05Y-12.05
X47.05Y-13.525
X47.05Y-15.0
X47.05Y-16.475
X47.05Y-17.95
X48.525Y-12.05
X48.525Y-13.525
X48.525Y-15.0
X48.525Y-16.475
X48.525Y-17.95
X50.0Y-12.05
X50.0Y-13.525
X50.0Y-15.0
X50.0Y-16.475
X50.0Y-17.95
X51.475Y-12.05
X51.475Y-13.525
X51.475Y-15.0
X51.475Y-16.475
X51.475Y-17.95
X52.95Y-12.05
X52.95Y-13.525
X52.95Y-15.0
X52.95Y-16.475
X52.95Y-17.95
M30
