%TF.GenerationSoftware,KiCad,Pcbnew,10.0.5*%
%TF.CreationDate,2026-08-24T21:37:02+08:00*%
%TF.ProjectId,holter_v1,686f6c74-6572-45f7-9631-2e6b69636164,rev?*%
%TF.SameCoordinates,Original*%
%TF.FileFunction,Legend,Bot*%
%TF.FilePolarity,Positive*%
%FSLAX46Y46*%
G04 Gerber Fmt 4.6, Leading zero omitted, Abs format (unit mm)*
G04 Created by KiCad (PCBNEW 10.0.5) date 2026-08-24 21:37:02*
%MOMM*%
%LPD*%
G01*
G04 APERTURE LIST*
%ADD10C,0.120000*%
G04 APERTURE END LIST*
D10*
X58785712Y-25725069D02*
X58476188Y-25725069D01*
X58476188Y-25725069D02*
X58642855Y-25915545D01*
X58642855Y-25915545D02*
X58571426Y-25915545D01*
X58571426Y-25915545D02*
X58523807Y-25939355D01*
X58523807Y-25939355D02*
X58499998Y-25963164D01*
X58499998Y-25963164D02*
X58476188Y-26010783D01*
X58476188Y-26010783D02*
X58476188Y-26129831D01*
X58476188Y-26129831D02*
X58499998Y-26177450D01*
X58499998Y-26177450D02*
X58523807Y-26201260D01*
X58523807Y-26201260D02*
X58571426Y-26225069D01*
X58571426Y-26225069D02*
X58714283Y-26225069D01*
X58714283Y-26225069D02*
X58761902Y-26201260D01*
X58761902Y-26201260D02*
X58785712Y-26177450D01*
X58333331Y-25725069D02*
X58166665Y-26225069D01*
X58166665Y-26225069D02*
X57999998Y-25725069D01*
X56809523Y-25748879D02*
X56857142Y-25725069D01*
X56857142Y-25725069D02*
X56928571Y-25725069D01*
X56928571Y-25725069D02*
X56999999Y-25748879D01*
X56999999Y-25748879D02*
X57047618Y-25796498D01*
X57047618Y-25796498D02*
X57071428Y-25844117D01*
X57071428Y-25844117D02*
X57095237Y-25939355D01*
X57095237Y-25939355D02*
X57095237Y-26010783D01*
X57095237Y-26010783D02*
X57071428Y-26106021D01*
X57071428Y-26106021D02*
X57047618Y-26153640D01*
X57047618Y-26153640D02*
X56999999Y-26201260D01*
X56999999Y-26201260D02*
X56928571Y-26225069D01*
X56928571Y-26225069D02*
X56880952Y-26225069D01*
X56880952Y-26225069D02*
X56809523Y-26201260D01*
X56809523Y-26201260D02*
X56785714Y-26177450D01*
X56785714Y-26177450D02*
X56785714Y-26010783D01*
X56785714Y-26010783D02*
X56880952Y-26010783D01*
X55809524Y-26225069D02*
X55809524Y-25725069D01*
X55809524Y-25725069D02*
X55690476Y-25725069D01*
X55690476Y-25725069D02*
X55619048Y-25748879D01*
X55619048Y-25748879D02*
X55571429Y-25796498D01*
X55571429Y-25796498D02*
X55547619Y-25844117D01*
X55547619Y-25844117D02*
X55523810Y-25939355D01*
X55523810Y-25939355D02*
X55523810Y-26010783D01*
X55523810Y-26010783D02*
X55547619Y-26106021D01*
X55547619Y-26106021D02*
X55571429Y-26153640D01*
X55571429Y-26153640D02*
X55619048Y-26201260D01*
X55619048Y-26201260D02*
X55690476Y-26225069D01*
X55690476Y-26225069D02*
X55809524Y-26225069D01*
X55309524Y-26225069D02*
X55309524Y-25725069D01*
X54976191Y-25725069D02*
X54880953Y-25725069D01*
X54880953Y-25725069D02*
X54833334Y-25748879D01*
X54833334Y-25748879D02*
X54785715Y-25796498D01*
X54785715Y-25796498D02*
X54761905Y-25891736D01*
X54761905Y-25891736D02*
X54761905Y-26058402D01*
X54761905Y-26058402D02*
X54785715Y-26153640D01*
X54785715Y-26153640D02*
X54833334Y-26201260D01*
X54833334Y-26201260D02*
X54880953Y-26225069D01*
X54880953Y-26225069D02*
X54976191Y-26225069D01*
X54976191Y-26225069D02*
X55023810Y-26201260D01*
X55023810Y-26201260D02*
X55071429Y-26153640D01*
X55071429Y-26153640D02*
X55095238Y-26058402D01*
X55095238Y-26058402D02*
X55095238Y-25891736D01*
X55095238Y-25891736D02*
X55071429Y-25796498D01*
X55071429Y-25796498D02*
X55023810Y-25748879D01*
X55023810Y-25748879D02*
X54976191Y-25725069D01*
X53880953Y-26177450D02*
X53904762Y-26201260D01*
X53904762Y-26201260D02*
X53976191Y-26225069D01*
X53976191Y-26225069D02*
X54023810Y-26225069D01*
X54023810Y-26225069D02*
X54095238Y-26201260D01*
X54095238Y-26201260D02*
X54142857Y-26153640D01*
X54142857Y-26153640D02*
X54166667Y-26106021D01*
X54166667Y-26106021D02*
X54190476Y-26010783D01*
X54190476Y-26010783D02*
X54190476Y-25939355D01*
X54190476Y-25939355D02*
X54166667Y-25844117D01*
X54166667Y-25844117D02*
X54142857Y-25796498D01*
X54142857Y-25796498D02*
X54095238Y-25748879D01*
X54095238Y-25748879D02*
X54023810Y-25725069D01*
X54023810Y-25725069D02*
X53976191Y-25725069D01*
X53976191Y-25725069D02*
X53904762Y-25748879D01*
X53904762Y-25748879D02*
X53880953Y-25772688D01*
X53428572Y-26225069D02*
X53666667Y-26225069D01*
X53666667Y-26225069D02*
X53666667Y-25725069D01*
X53261905Y-26225069D02*
X53261905Y-25725069D01*
X52976191Y-26225069D02*
X53190476Y-25939355D01*
X52976191Y-25725069D02*
X53261905Y-26010783D01*
X52095239Y-26225069D02*
X52261905Y-25986974D01*
X52380953Y-26225069D02*
X52380953Y-25725069D01*
X52380953Y-25725069D02*
X52190477Y-25725069D01*
X52190477Y-25725069D02*
X52142858Y-25748879D01*
X52142858Y-25748879D02*
X52119048Y-25772688D01*
X52119048Y-25772688D02*
X52095239Y-25820307D01*
X52095239Y-25820307D02*
X52095239Y-25891736D01*
X52095239Y-25891736D02*
X52119048Y-25939355D01*
X52119048Y-25939355D02*
X52142858Y-25963164D01*
X52142858Y-25963164D02*
X52190477Y-25986974D01*
X52190477Y-25986974D02*
X52380953Y-25986974D01*
X51904762Y-26201260D02*
X51833334Y-26225069D01*
X51833334Y-26225069D02*
X51714286Y-26225069D01*
X51714286Y-26225069D02*
X51666667Y-26201260D01*
X51666667Y-26201260D02*
X51642858Y-26177450D01*
X51642858Y-26177450D02*
X51619048Y-26129831D01*
X51619048Y-26129831D02*
X51619048Y-26082212D01*
X51619048Y-26082212D02*
X51642858Y-26034593D01*
X51642858Y-26034593D02*
X51666667Y-26010783D01*
X51666667Y-26010783D02*
X51714286Y-25986974D01*
X51714286Y-25986974D02*
X51809524Y-25963164D01*
X51809524Y-25963164D02*
X51857143Y-25939355D01*
X51857143Y-25939355D02*
X51880953Y-25915545D01*
X51880953Y-25915545D02*
X51904762Y-25867926D01*
X51904762Y-25867926D02*
X51904762Y-25820307D01*
X51904762Y-25820307D02*
X51880953Y-25772688D01*
X51880953Y-25772688D02*
X51857143Y-25748879D01*
X51857143Y-25748879D02*
X51809524Y-25725069D01*
X51809524Y-25725069D02*
X51690477Y-25725069D01*
X51690477Y-25725069D02*
X51619048Y-25748879D01*
X51476191Y-25725069D02*
X51190477Y-25725069D01*
X51333334Y-26225069D02*
X51333334Y-25725069D01*
X83334524Y-24898200D02*
X83151190Y-25448200D01*
X83151190Y-25448200D02*
X82967857Y-24898200D01*
X82601190Y-25160105D02*
X82522618Y-25186295D01*
X82522618Y-25186295D02*
X82496428Y-25212486D01*
X82496428Y-25212486D02*
X82470237Y-25264867D01*
X82470237Y-25264867D02*
X82470237Y-25343438D01*
X82470237Y-25343438D02*
X82496428Y-25395819D01*
X82496428Y-25395819D02*
X82522618Y-25422010D01*
X82522618Y-25422010D02*
X82574999Y-25448200D01*
X82574999Y-25448200D02*
X82784523Y-25448200D01*
X82784523Y-25448200D02*
X82784523Y-24898200D01*
X82784523Y-24898200D02*
X82601190Y-24898200D01*
X82601190Y-24898200D02*
X82548809Y-24924390D01*
X82548809Y-24924390D02*
X82522618Y-24950581D01*
X82522618Y-24950581D02*
X82496428Y-25002962D01*
X82496428Y-25002962D02*
X82496428Y-25055343D01*
X82496428Y-25055343D02*
X82522618Y-25107724D01*
X82522618Y-25107724D02*
X82548809Y-25133914D01*
X82548809Y-25133914D02*
X82601190Y-25160105D01*
X82601190Y-25160105D02*
X82784523Y-25160105D01*
X82234523Y-24898200D02*
X82234523Y-25343438D01*
X82234523Y-25343438D02*
X82208333Y-25395819D01*
X82208333Y-25395819D02*
X82182142Y-25422010D01*
X82182142Y-25422010D02*
X82129761Y-25448200D01*
X82129761Y-25448200D02*
X82024999Y-25448200D01*
X82024999Y-25448200D02*
X81972618Y-25422010D01*
X81972618Y-25422010D02*
X81946428Y-25395819D01*
X81946428Y-25395819D02*
X81920237Y-25343438D01*
X81920237Y-25343438D02*
X81920237Y-24898200D01*
X81684524Y-25422010D02*
X81605952Y-25448200D01*
X81605952Y-25448200D02*
X81475000Y-25448200D01*
X81475000Y-25448200D02*
X81422619Y-25422010D01*
X81422619Y-25422010D02*
X81396428Y-25395819D01*
X81396428Y-25395819D02*
X81370238Y-25343438D01*
X81370238Y-25343438D02*
X81370238Y-25291057D01*
X81370238Y-25291057D02*
X81396428Y-25238676D01*
X81396428Y-25238676D02*
X81422619Y-25212486D01*
X81422619Y-25212486D02*
X81475000Y-25186295D01*
X81475000Y-25186295D02*
X81579762Y-25160105D01*
X81579762Y-25160105D02*
X81632143Y-25133914D01*
X81632143Y-25133914D02*
X81658333Y-25107724D01*
X81658333Y-25107724D02*
X81684524Y-25055343D01*
X81684524Y-25055343D02*
X81684524Y-25002962D01*
X81684524Y-25002962D02*
X81658333Y-24950581D01*
X81658333Y-24950581D02*
X81632143Y-24924390D01*
X81632143Y-24924390D02*
X81579762Y-24898200D01*
X81579762Y-24898200D02*
X81448809Y-24898200D01*
X81448809Y-24898200D02*
X81370238Y-24924390D01*
X80296427Y-25448200D02*
X80296427Y-24898200D01*
X80296427Y-24898200D02*
X80165475Y-24898200D01*
X80165475Y-24898200D02*
X80086903Y-24924390D01*
X80086903Y-24924390D02*
X80034522Y-24976771D01*
X80034522Y-24976771D02*
X80008332Y-25029152D01*
X80008332Y-25029152D02*
X79982141Y-25133914D01*
X79982141Y-25133914D02*
X79982141Y-25212486D01*
X79982141Y-25212486D02*
X80008332Y-25317248D01*
X80008332Y-25317248D02*
X80034522Y-25369629D01*
X80034522Y-25369629D02*
X80086903Y-25422010D01*
X80086903Y-25422010D02*
X80165475Y-25448200D01*
X80165475Y-25448200D02*
X80296427Y-25448200D01*
X79746427Y-25238676D02*
X79327380Y-25238676D01*
X78227379Y-25448200D02*
X78227379Y-24898200D01*
X78227379Y-24898200D02*
X78096427Y-24898200D01*
X78096427Y-24898200D02*
X78017855Y-24924390D01*
X78017855Y-24924390D02*
X77965474Y-24976771D01*
X77965474Y-24976771D02*
X77939284Y-25029152D01*
X77939284Y-25029152D02*
X77913093Y-25133914D01*
X77913093Y-25133914D02*
X77913093Y-25212486D01*
X77913093Y-25212486D02*
X77939284Y-25317248D01*
X77939284Y-25317248D02*
X77965474Y-25369629D01*
X77965474Y-25369629D02*
X78017855Y-25422010D01*
X78017855Y-25422010D02*
X78096427Y-25448200D01*
X78096427Y-25448200D02*
X78227379Y-25448200D01*
X77677379Y-25238676D02*
X77258332Y-25238676D01*
X77467855Y-25448200D02*
X77467855Y-25029152D01*
X75870236Y-24924390D02*
X75922617Y-24898200D01*
X75922617Y-24898200D02*
X76001188Y-24898200D01*
X76001188Y-24898200D02*
X76079760Y-24924390D01*
X76079760Y-24924390D02*
X76132141Y-24976771D01*
X76132141Y-24976771D02*
X76158331Y-25029152D01*
X76158331Y-25029152D02*
X76184522Y-25133914D01*
X76184522Y-25133914D02*
X76184522Y-25212486D01*
X76184522Y-25212486D02*
X76158331Y-25317248D01*
X76158331Y-25317248D02*
X76132141Y-25369629D01*
X76132141Y-25369629D02*
X76079760Y-25422010D01*
X76079760Y-25422010D02*
X76001188Y-25448200D01*
X76001188Y-25448200D02*
X75948807Y-25448200D01*
X75948807Y-25448200D02*
X75870236Y-25422010D01*
X75870236Y-25422010D02*
X75844045Y-25395819D01*
X75844045Y-25395819D02*
X75844045Y-25212486D01*
X75844045Y-25212486D02*
X75948807Y-25212486D01*
X75608331Y-25448200D02*
X75608331Y-24898200D01*
X75608331Y-24898200D02*
X75294045Y-25448200D01*
X75294045Y-25448200D02*
X75294045Y-24898200D01*
X75032141Y-25448200D02*
X75032141Y-24898200D01*
X75032141Y-24898200D02*
X74901189Y-24898200D01*
X74901189Y-24898200D02*
X74822617Y-24924390D01*
X74822617Y-24924390D02*
X74770236Y-24976771D01*
X74770236Y-24976771D02*
X74744046Y-25029152D01*
X74744046Y-25029152D02*
X74717855Y-25133914D01*
X74717855Y-25133914D02*
X74717855Y-25212486D01*
X74717855Y-25212486D02*
X74744046Y-25317248D01*
X74744046Y-25317248D02*
X74770236Y-25369629D01*
X74770236Y-25369629D02*
X74822617Y-25422010D01*
X74822617Y-25422010D02*
X74901189Y-25448200D01*
X74901189Y-25448200D02*
X75032141Y-25448200D01*
M02*
