%TF.GenerationSoftware,KiCad,Pcbnew,10.0.5*%
%TF.CreationDate,2026-08-26T17:12:33+08:00*%
%TF.ProjectId,heart_v2,68656172-745f-4763-922e-6b696361645f,2.0*%
%TF.SameCoordinates,Original*%
%TF.FileFunction,Paste,Top*%
%TF.FilePolarity,Positive*%
%FSLAX46Y46*%
G04 Gerber Fmt 4.6, Leading zero omitted, Abs format (unit mm)*
G04 Created by KiCad (PCBNEW 10.0.5) date 2026-08-26 17:12:33*
%MOMM*%
%LPD*%
G01*
G04 APERTURE LIST*
G04 Aperture macros list*
%AMRoundRect*
0 Rectangle with rounded corners*
0 $1 Rounding radius*
0 $2 $3 $4 $5 $6 $7 $8 $9 X,Y pos of 4 corners*
0 Add a 4 corners polygon primitive as box body*
4,1,4,$2,$3,$4,$5,$6,$7,$8,$9,$2,$3,0*
0 Add four circle primitives for the rounded corners*
1,1,$1+$1,$2,$3*
1,1,$1+$1,$4,$5*
1,1,$1+$1,$6,$7*
1,1,$1+$1,$8,$9*
0 Add four rect primitives between the rounded corners*
20,1,$1+$1,$2,$3,$4,$5,0*
20,1,$1+$1,$4,$5,$6,$7,0*
20,1,$1+$1,$6,$7,$8,$9,0*
20,1,$1+$1,$8,$9,$2,$3,0*%
G04 Aperture macros list end*
%ADD10RoundRect,0.140000X-0.140000X-0.170000X0.140000X-0.170000X0.140000X0.170000X-0.140000X0.170000X0*%
%ADD11RoundRect,0.135000X-0.135000X-0.185000X0.135000X-0.185000X0.135000X0.185000X-0.135000X0.185000X0*%
%ADD12RoundRect,0.112500X0.112500X-0.187500X0.112500X0.187500X-0.112500X0.187500X-0.112500X-0.187500X0*%
%ADD13RoundRect,0.140000X-0.170000X0.140000X-0.170000X-0.140000X0.170000X-0.140000X0.170000X0.140000X0*%
%ADD14RoundRect,0.218750X-0.218750X-0.256250X0.218750X-0.256250X0.218750X0.256250X-0.218750X0.256250X0*%
%ADD15RoundRect,0.225000X-0.225000X-0.250000X0.225000X-0.250000X0.225000X0.250000X-0.225000X0.250000X0*%
%ADD16RoundRect,0.135000X-0.185000X0.135000X-0.185000X-0.135000X0.185000X-0.135000X0.185000X0.135000X0*%
%ADD17RoundRect,0.140000X0.170000X-0.140000X0.170000X0.140000X-0.170000X0.140000X-0.170000X-0.140000X0*%
%ADD18RoundRect,0.135000X0.135000X0.185000X-0.135000X0.185000X-0.135000X-0.185000X0.135000X-0.185000X0*%
%ADD19RoundRect,0.225000X0.225000X0.250000X-0.225000X0.250000X-0.225000X-0.250000X0.225000X-0.250000X0*%
%ADD20RoundRect,0.250000X-0.250000X-0.475000X0.250000X-0.475000X0.250000X0.475000X-0.250000X0.475000X0*%
%ADD21R,0.250000X0.675000*%
%ADD22R,0.675000X0.250000*%
%ADD23RoundRect,0.225000X0.250000X-0.225000X0.250000X0.225000X-0.250000X0.225000X-0.250000X-0.225000X0*%
%ADD24RoundRect,0.050000X0.250000X-0.100000X0.250000X0.100000X-0.250000X0.100000X-0.250000X-0.100000X0*%
%ADD25RoundRect,0.150000X-0.512500X-0.150000X0.512500X-0.150000X0.512500X0.150000X-0.512500X0.150000X0*%
%ADD26RoundRect,0.060000X-0.315000X-0.090000X0.315000X-0.090000X0.315000X0.090000X-0.315000X0.090000X0*%
%ADD27RoundRect,0.200000X-0.200000X-0.275000X0.200000X-0.275000X0.200000X0.275000X-0.200000X0.275000X0*%
%ADD28RoundRect,0.135000X0.185000X-0.135000X0.185000X0.135000X-0.185000X0.135000X-0.185000X-0.135000X0*%
%ADD29RoundRect,0.150000X-0.150000X-0.275000X0.150000X-0.275000X0.150000X0.275000X-0.150000X0.275000X0*%
%ADD30RoundRect,0.175000X-0.175000X-0.225000X0.175000X-0.225000X0.175000X0.225000X-0.175000X0.225000X0*%
%ADD31R,1.800000X1.000000*%
%ADD32RoundRect,0.150000X-0.587500X-0.150000X0.587500X-0.150000X0.587500X0.150000X-0.587500X0.150000X0*%
%ADD33RoundRect,0.218750X0.256250X-0.218750X0.256250X0.218750X-0.256250X0.218750X-0.256250X-0.218750X0*%
%ADD34RoundRect,0.250000X-0.370000X-0.370000X0.370000X-0.370000X0.370000X0.370000X-0.370000X0.370000X0*%
%ADD35RoundRect,0.062500X-0.400000X-0.062500X0.400000X-0.062500X0.400000X0.062500X-0.400000X0.062500X0*%
%ADD36RoundRect,0.062500X-0.062500X-0.400000X0.062500X-0.400000X0.062500X0.400000X-0.062500X0.400000X0*%
%ADD37RoundRect,0.200000X0.250000X0.200000X-0.250000X0.200000X-0.250000X-0.200000X0.250000X-0.200000X0*%
%ADD38RoundRect,0.200000X0.200000X0.275000X-0.200000X0.275000X-0.200000X-0.275000X0.200000X-0.275000X0*%
%ADD39C,0.400000*%
%ADD40RoundRect,0.250000X-0.350000X-0.650000X0.350000X-0.650000X0.350000X0.650000X-0.350000X0.650000X0*%
%ADD41RoundRect,0.062500X0.062500X0.062500X-0.062500X0.062500X-0.062500X-0.062500X0.062500X-0.062500X0*%
%ADD42RoundRect,0.218750X0.218750X0.256250X-0.218750X0.256250X-0.218750X-0.256250X0.218750X-0.256250X0*%
%ADD43RoundRect,0.150000X0.587500X0.150000X-0.587500X0.150000X-0.587500X-0.150000X0.587500X-0.150000X0*%
%ADD44R,1.100000X0.850000*%
%ADD45R,1.100000X0.750000*%
%ADD46R,1.000000X1.200000*%
%ADD47R,1.350000X1.550000*%
%ADD48R,1.350000X1.900000*%
%ADD49R,1.800000X1.170000*%
%ADD50RoundRect,0.225000X-0.250000X0.225000X-0.250000X-0.225000X0.250000X-0.225000X0.250000X0.225000X0*%
%ADD51RoundRect,0.150000X-0.275000X0.150000X-0.275000X-0.150000X0.275000X-0.150000X0.275000X0.150000X0*%
%ADD52RoundRect,0.175000X-0.225000X0.175000X-0.225000X-0.175000X0.225000X-0.175000X0.225000X0.175000X0*%
%ADD53RoundRect,0.250000X0.475000X-0.250000X0.475000X0.250000X-0.475000X0.250000X-0.475000X-0.250000X0*%
%ADD54RoundRect,0.112500X-0.187500X-0.112500X0.187500X-0.112500X0.187500X0.112500X-0.187500X0.112500X0*%
G04 APERTURE END LIST*
D10*
%TO.C,C59*%
X75020000Y10000000D03*
X75980000Y10000000D03*
%TD*%
%TO.C,C50*%
X66220000Y10600000D03*
X67180000Y10600000D03*
%TD*%
D11*
%TO.C,R42*%
X83990000Y8300000D03*
X85010000Y8300000D03*
%TD*%
%TO.C,R51*%
X81990000Y10500000D03*
X83010000Y10500000D03*
%TD*%
D12*
%TO.C,D10*%
X18400000Y12050000D03*
X18400000Y14150000D03*
%TD*%
D13*
%TO.C,C23*%
X37600000Y9480000D03*
X37600000Y8520000D03*
%TD*%
D14*
%TO.C,FB1*%
X63512500Y12200000D03*
X65087500Y12200000D03*
%TD*%
D10*
%TO.C,C26*%
X13520000Y4000000D03*
X14480000Y4000000D03*
%TD*%
D15*
%TO.C,C46*%
X82725000Y24000000D03*
X84275000Y24000000D03*
%TD*%
%TO.C,C14*%
X27725000Y25800000D03*
X29275000Y25800000D03*
%TD*%
D16*
%TO.C,R32*%
X56300000Y14010000D03*
X56300000Y12990000D03*
%TD*%
D15*
%TO.C,C62*%
X76225000Y6300000D03*
X77775000Y6300000D03*
%TD*%
D11*
%TO.C,R37*%
X82290000Y27500000D03*
X83310000Y27500000D03*
%TD*%
D17*
%TO.C,C66*%
X86000000Y17020000D03*
X86000000Y17980000D03*
%TD*%
D10*
%TO.C,C27*%
X18520000Y4000000D03*
X19480000Y4000000D03*
%TD*%
D18*
%TO.C,R15*%
X39710000Y10800000D03*
X38690000Y10800000D03*
%TD*%
D19*
%TO.C,C29*%
X53675000Y11200000D03*
X52125000Y11200000D03*
%TD*%
D20*
%TO.C,C31*%
X51050000Y1500000D03*
X52950000Y1500000D03*
%TD*%
D21*
%TO.C,U3*%
X62750000Y16762500D03*
X62250000Y16762500D03*
X61750000Y16762500D03*
X61250000Y16762500D03*
D22*
X60987500Y16000000D03*
X60987500Y15500000D03*
X60987500Y15000000D03*
D21*
X61250000Y14237500D03*
X61750000Y14237500D03*
X62250000Y14237500D03*
X62750000Y14237500D03*
D22*
X63012500Y15000000D03*
X63012500Y15500000D03*
X63012500Y16000000D03*
%TD*%
D10*
%TO.C,C54*%
X69020000Y10000000D03*
X69980000Y10000000D03*
%TD*%
%TO.C,C15*%
X28020000Y23900000D03*
X28980000Y23900000D03*
%TD*%
D23*
%TO.C,C47*%
X84500000Y18225000D03*
X84500000Y19775000D03*
%TD*%
D14*
%TO.C,L2*%
X81212500Y19500000D03*
X82787500Y19500000D03*
%TD*%
D24*
%TO.C,D4*%
X7200000Y11650000D03*
X7200000Y12350000D03*
%TD*%
D12*
%TO.C,D11*%
X18400000Y15450000D03*
X18400000Y17550000D03*
%TD*%
D25*
%TO.C,U6*%
X43162500Y28150000D03*
X43162500Y27200000D03*
X43162500Y26250000D03*
X45437500Y26250000D03*
X45437500Y28150000D03*
%TD*%
D11*
%TO.C,R50*%
X89490000Y1000000D03*
X90510000Y1000000D03*
%TD*%
%TO.C,R47*%
X80490000Y8300000D03*
X81510000Y8300000D03*
%TD*%
%TO.C,R49*%
X87490000Y1000000D03*
X88510000Y1000000D03*
%TD*%
D17*
%TO.C,C2*%
X25800000Y18520000D03*
X25800000Y19480000D03*
%TD*%
D24*
%TO.C,D3*%
X7200000Y15150000D03*
X7200000Y15850000D03*
%TD*%
D26*
%TO.C,U4*%
X49350000Y8750000D03*
X49350000Y8250000D03*
X49350000Y7750000D03*
X49350000Y7250000D03*
X51650000Y7250000D03*
X51650000Y7750000D03*
X51650000Y8250000D03*
X51650000Y8750000D03*
%TD*%
D20*
%TO.C,C39*%
X55050000Y28000000D03*
X56950000Y28000000D03*
%TD*%
D24*
%TO.C,D1*%
X7200000Y18650000D03*
X7200000Y19350000D03*
%TD*%
D17*
%TO.C,C1*%
X12299999Y19200000D03*
X12299999Y20160000D03*
%TD*%
%TO.C,C42*%
X83100000Y15420000D03*
X83100000Y16380000D03*
%TD*%
D15*
%TO.C,C30*%
X43824999Y11200000D03*
X45374999Y11200000D03*
%TD*%
D27*
%TO.C,R1*%
X9175000Y19200000D03*
X10825000Y19200000D03*
%TD*%
D24*
%TO.C,D5*%
X7200000Y13400000D03*
X7200000Y14100000D03*
%TD*%
D28*
%TO.C,R35*%
X59500000Y20490000D03*
X59500000Y21510000D03*
%TD*%
%TO.C,R31*%
X52500000Y19990000D03*
X52500000Y21010000D03*
%TD*%
D27*
%TO.C,R8*%
X9175000Y12600000D03*
X10825000Y12600000D03*
%TD*%
D10*
%TO.C,C25*%
X37420000Y13500000D03*
X38380000Y13500000D03*
%TD*%
D19*
%TO.C,C18*%
X34275000Y7000000D03*
X32725000Y7000000D03*
%TD*%
D28*
%TO.C,R25*%
X52700000Y4290000D03*
X52700000Y5310000D03*
%TD*%
D16*
%TO.C,R21*%
X78800000Y25010000D03*
X78800000Y23990000D03*
%TD*%
D15*
%TO.C,C35*%
X47425000Y27200000D03*
X48975000Y27200000D03*
%TD*%
D20*
%TO.C,C40*%
X58750000Y28000000D03*
X60650000Y28000000D03*
%TD*%
D27*
%TO.C,R6*%
X9175000Y14800000D03*
X10825000Y14800000D03*
%TD*%
D10*
%TO.C,C38*%
X63920000Y4500000D03*
X64880000Y4500000D03*
%TD*%
D29*
%TO.C,J2*%
X41400000Y5375000D03*
X42600000Y5375000D03*
D30*
X40250000Y1600000D03*
X43750000Y1600000D03*
%TD*%
D17*
%TO.C,C6*%
X12299999Y14800000D03*
X12299999Y15760000D03*
%TD*%
D12*
%TO.C,D6*%
X14000000Y16450000D03*
X14000000Y18550000D03*
%TD*%
D28*
%TO.C,R36*%
X60700000Y20490000D03*
X60700000Y21510000D03*
%TD*%
D11*
%TO.C,R52*%
X43990000Y21000000D03*
X45010000Y21000000D03*
%TD*%
D15*
%TO.C,C20*%
X43725000Y23000000D03*
X45275000Y23000000D03*
%TD*%
D17*
%TO.C,C7*%
X25800000Y14520000D03*
X25800000Y15480000D03*
%TD*%
D31*
%TO.C,Y2*%
X65500000Y23000000D03*
X65500000Y20500000D03*
%TD*%
D27*
%TO.C,R5*%
X22375000Y20000000D03*
X24025000Y20000000D03*
%TD*%
D10*
%TO.C,C53*%
X74020000Y24200000D03*
X74980000Y24200000D03*
%TD*%
D27*
%TO.C,R4*%
X9175000Y17000000D03*
X10825000Y17000000D03*
%TD*%
D32*
%TO.C,Q1*%
X44562500Y8950000D03*
X44562500Y7050000D03*
X46437500Y8000000D03*
%TD*%
D17*
%TO.C,C65*%
X80500000Y10520000D03*
X80500000Y11480000D03*
%TD*%
D28*
%TO.C,R45*%
X83800000Y4790000D03*
X83800000Y5810000D03*
%TD*%
D10*
%TO.C,C51*%
X68520000Y24200000D03*
X69480000Y24200000D03*
%TD*%
D15*
%TO.C,C16*%
X31225000Y25800000D03*
X32775000Y25800000D03*
%TD*%
D25*
%TO.C,U8*%
X79662500Y4450000D03*
X79662500Y3500000D03*
X79662500Y2550000D03*
X81937500Y2550000D03*
X81937500Y3500000D03*
X81937500Y4450000D03*
%TD*%
D10*
%TO.C,C48*%
X65320000Y8200000D03*
X66280000Y8200000D03*
%TD*%
D17*
%TO.C,C61*%
X76000000Y3520000D03*
X76000000Y4480000D03*
%TD*%
D28*
%TO.C,R30*%
X59600000Y12990000D03*
X59600000Y14010000D03*
%TD*%
D11*
%TO.C,R16*%
X40490000Y15000000D03*
X41510000Y15000000D03*
%TD*%
D15*
%TO.C,C37*%
X65225000Y25500000D03*
X66775000Y25500000D03*
%TD*%
D27*
%TO.C,R9*%
X22375000Y13600000D03*
X24025000Y13600000D03*
%TD*%
%TO.C,R2*%
X22375000Y18400000D03*
X24025000Y18400000D03*
%TD*%
D11*
%TO.C,R53*%
X43990000Y19600000D03*
X45010000Y19600000D03*
%TD*%
D33*
%TO.C,F2*%
X70000000Y28012500D03*
X70000000Y29587500D03*
%TD*%
D16*
%TO.C,R22*%
X77200000Y25010000D03*
X77200000Y23990000D03*
%TD*%
D15*
%TO.C,C32*%
X51225000Y15000000D03*
X52775000Y15000000D03*
%TD*%
D25*
%TO.C,U7*%
X60862500Y25950000D03*
X60862500Y25000000D03*
X60862500Y24050000D03*
X63137500Y24050000D03*
X63137500Y25950000D03*
%TD*%
D23*
%TO.C,C33*%
X60500000Y7225000D03*
X60500000Y8775000D03*
%TD*%
D27*
%TO.C,R7*%
X22375000Y15200000D03*
X24025000Y15200000D03*
%TD*%
D10*
%TO.C,C58*%
X73020000Y10000000D03*
X73980000Y10000000D03*
%TD*%
D15*
%TO.C,C60*%
X73225000Y7500000D03*
X74775000Y7500000D03*
%TD*%
D12*
%TO.C,D8*%
X16200000Y14250000D03*
X16200000Y16350000D03*
%TD*%
D34*
%TO.C,U2*%
X71600000Y20400000D03*
X71600000Y18800000D03*
X71600000Y17200000D03*
X71600000Y15600000D03*
X73200000Y20400000D03*
X73200000Y18800000D03*
X73200000Y17200000D03*
X73200000Y15600000D03*
X74800000Y20400000D03*
X74800000Y18800000D03*
X74800000Y17200000D03*
X74800000Y15600000D03*
X76400000Y20400000D03*
X76400000Y18800000D03*
X76400000Y17200000D03*
X76400000Y15600000D03*
D35*
X70112500Y21200000D03*
X70112500Y20800000D03*
X70112500Y20400000D03*
X70112500Y20000000D03*
X70112500Y19600000D03*
X70112500Y19200000D03*
X70112500Y18800000D03*
X70112500Y18400000D03*
X70112500Y18000000D03*
X70112500Y17600000D03*
X70112500Y17200000D03*
X70112500Y16800000D03*
X70112500Y16400000D03*
X70112500Y16000000D03*
X70112500Y15600000D03*
X70112500Y15200000D03*
X70112500Y14800000D03*
D36*
X70800000Y14112500D03*
X71200000Y14112500D03*
X71600000Y14112500D03*
X72000000Y14112500D03*
X72400000Y14112500D03*
X72800000Y14112500D03*
X73200000Y14112500D03*
X73600000Y14112500D03*
X74000000Y14112500D03*
X74400000Y14112500D03*
X74800000Y14112500D03*
X75200000Y14112500D03*
X75600000Y14112500D03*
X76000000Y14112500D03*
X76400000Y14112500D03*
X76800000Y14112500D03*
X77200000Y14112500D03*
D35*
X77887500Y14800000D03*
X77887500Y15200000D03*
X77887500Y15600000D03*
X77887500Y16000000D03*
X77887500Y16400000D03*
X77887500Y16800000D03*
X77887500Y17200000D03*
X77887500Y17600000D03*
X77887500Y18000000D03*
X77887500Y18400000D03*
X77887500Y18800000D03*
X77887500Y19200000D03*
X77887500Y19600000D03*
X77887500Y20000000D03*
X77887500Y20400000D03*
X77887500Y20800000D03*
X77887500Y21200000D03*
D36*
X77200000Y21887500D03*
X76800000Y21887500D03*
X76400000Y21887500D03*
X76000000Y21887500D03*
X75600000Y21887500D03*
X75200000Y21887500D03*
X74800000Y21887500D03*
X74400000Y21887500D03*
X74000000Y21887500D03*
X73600000Y21887500D03*
X73200000Y21887500D03*
X72800000Y21887500D03*
X72400000Y21887500D03*
X72000000Y21887500D03*
X71600000Y21887500D03*
X71200000Y21887500D03*
X70800000Y21887500D03*
%TD*%
D11*
%TO.C,R18*%
X15690000Y4000000D03*
X16710000Y4000000D03*
%TD*%
D37*
%TO.C,Y1*%
X81700000Y15550000D03*
X80300000Y15550000D03*
X80300000Y14450000D03*
X81700000Y14450000D03*
%TD*%
D20*
%TO.C,C41*%
X62450000Y28000000D03*
X64350000Y28000000D03*
%TD*%
D12*
%TO.C,D13*%
X20600000Y13250000D03*
X20600000Y15350000D03*
%TD*%
D10*
%TO.C,C56*%
X80020000Y26000000D03*
X80980000Y26000000D03*
%TD*%
D17*
%TO.C,C45*%
X63000000Y19020000D03*
X63000000Y19980000D03*
%TD*%
D11*
%TO.C,R48*%
X85490000Y1000000D03*
X86510000Y1000000D03*
%TD*%
D23*
%TO.C,C28*%
X48200000Y2925000D03*
X48200000Y4475000D03*
%TD*%
D11*
%TO.C,R44*%
X83990000Y12500000D03*
X85010000Y12500000D03*
%TD*%
%TO.C,R55*%
X43990000Y18200000D03*
X45010000Y18200000D03*
%TD*%
%TO.C,R27*%
X59490000Y4500000D03*
X60510000Y4500000D03*
%TD*%
D14*
%TO.C,D16*%
X84712500Y27500000D03*
X86287500Y27500000D03*
%TD*%
D38*
%TO.C,R10*%
X28825000Y9300000D03*
X27175000Y9300000D03*
%TD*%
D28*
%TO.C,R29*%
X58400000Y12990000D03*
X58400000Y14010000D03*
%TD*%
D11*
%TO.C,R17*%
X40490000Y12600000D03*
X41510000Y12600000D03*
%TD*%
D24*
%TO.C,D14*%
X39000000Y8150000D03*
X39000000Y8850000D03*
%TD*%
D39*
%TO.C,U1*%
X29200000Y12200000D03*
X30000000Y12200000D03*
X30800000Y12200000D03*
X31600000Y12200000D03*
X32400000Y12200000D03*
X33200000Y12200000D03*
X34000000Y12200000D03*
X34800000Y12200000D03*
X29200000Y13000000D03*
X30000000Y13000000D03*
X30800000Y13000000D03*
X31600000Y13000000D03*
X32400000Y13000000D03*
X33200000Y13000000D03*
X34000000Y13000000D03*
X34800000Y13000000D03*
X29200000Y13800000D03*
X30000000Y13800000D03*
X30800000Y13800000D03*
X31600000Y13800000D03*
X32400000Y13800000D03*
X33200000Y13800000D03*
X34000000Y13800000D03*
X34800000Y13800000D03*
X29200000Y14600000D03*
X30000000Y14600000D03*
X30800000Y14600000D03*
X31600000Y14600000D03*
X32400000Y14600000D03*
X33200000Y14600000D03*
X34000000Y14600000D03*
X34800000Y14600000D03*
X29200000Y15400000D03*
X30000000Y15400000D03*
X30800000Y15400000D03*
X31600000Y15400000D03*
X32400000Y15400000D03*
X33200000Y15400000D03*
X34000000Y15400000D03*
X34800000Y15400000D03*
X29200000Y16200000D03*
X30000000Y16200000D03*
X30800000Y16200000D03*
X31600000Y16200000D03*
X32400000Y16200000D03*
X33200000Y16200000D03*
X34000000Y16200000D03*
X34800000Y16200000D03*
X29200000Y17000000D03*
X30000000Y17000000D03*
X30800000Y17000000D03*
X31600000Y17000000D03*
X32400000Y17000000D03*
X33200000Y17000000D03*
X34000000Y17000000D03*
X34800000Y17000000D03*
X29200000Y17800000D03*
X30000000Y17800000D03*
X30800000Y17800000D03*
X31600000Y17800000D03*
X32400000Y17800000D03*
X33200000Y17800000D03*
X34000000Y17800000D03*
X34800000Y17800000D03*
%TD*%
D17*
%TO.C,C12*%
X34200000Y8320000D03*
X34200000Y9280000D03*
%TD*%
D12*
%TO.C,D9*%
X16200000Y17650000D03*
X16200000Y19750000D03*
%TD*%
D11*
%TO.C,R54*%
X43990000Y16800000D03*
X45010000Y16800000D03*
%TD*%
D17*
%TO.C,C13*%
X27000000Y21020000D03*
X27000000Y21980000D03*
%TD*%
D11*
%TO.C,R43*%
X83990000Y10300000D03*
X85010000Y10300000D03*
%TD*%
D15*
%TO.C,C36*%
X56225000Y25000000D03*
X57775000Y25000000D03*
%TD*%
D27*
%TO.C,R3*%
X22375000Y16800000D03*
X24025000Y16800000D03*
%TD*%
D12*
%TO.C,D12*%
X20600000Y9850000D03*
X20600000Y11950000D03*
%TD*%
D40*
%TO.C,AE1*%
X95550000Y19000000D03*
X98450000Y19000000D03*
%TD*%
D25*
%TO.C,U5*%
X56362500Y8950000D03*
X56362500Y8000000D03*
X56362500Y7050000D03*
X58637500Y7050000D03*
X58637500Y8950000D03*
%TD*%
D16*
%TO.C,R38*%
X64800000Y17310000D03*
X64800000Y16290000D03*
%TD*%
D24*
%TO.C,D2*%
X7200000Y16900000D03*
X7200000Y17600000D03*
%TD*%
D11*
%TO.C,R39*%
X65690000Y15500000D03*
X66710000Y15500000D03*
%TD*%
%TO.C,R19*%
X20690000Y4000000D03*
X21710000Y4000000D03*
%TD*%
D15*
%TO.C,C11*%
X5425000Y9000000D03*
X6975000Y9000000D03*
%TD*%
%TO.C,C17*%
X34325000Y25800000D03*
X35875000Y25800000D03*
%TD*%
D14*
%TO.C,F1*%
X40712500Y8000000D03*
X42287500Y8000000D03*
%TD*%
D10*
%TO.C,C10*%
X9020000Y9000000D03*
X9980000Y9000000D03*
%TD*%
%TO.C,C55*%
X71020000Y10000000D03*
X71980000Y10000000D03*
%TD*%
D41*
%TO.C,U9*%
X77800000Y11206500D03*
X77300000Y11206500D03*
X76800000Y11206500D03*
X77800000Y11793500D03*
X77300000Y11793500D03*
X76800000Y11793500D03*
%TD*%
D42*
%TO.C,L1*%
X82787500Y22200000D03*
X81212500Y22200000D03*
%TD*%
D15*
%TO.C,C24*%
X37125000Y15000000D03*
X38675000Y15000000D03*
%TD*%
D28*
%TO.C,R13*%
X31000000Y8790000D03*
X31000000Y9810000D03*
%TD*%
D11*
%TO.C,R41*%
X84490000Y6700000D03*
X85510000Y6700000D03*
%TD*%
D43*
%TO.C,U10*%
X74437500Y28350000D03*
X74437500Y30250000D03*
X72562500Y29300000D03*
%TD*%
D44*
%TO.C,J4*%
X87050000Y5895000D03*
X87050000Y6995000D03*
X87050000Y8095000D03*
X87050000Y9195000D03*
X87050000Y10295000D03*
X87050000Y11395000D03*
X87050000Y12495000D03*
D45*
X87050000Y13545000D03*
D46*
X93200000Y3260000D03*
X96900000Y3260000D03*
D47*
X87175000Y3435000D03*
D48*
X97875000Y6760000D03*
X97875000Y12730000D03*
D49*
X87400000Y14755000D03*
%TD*%
D17*
%TO.C,C44*%
X63000000Y21520000D03*
X63000000Y22480000D03*
%TD*%
D10*
%TO.C,C21*%
X46520000Y23000000D03*
X47480000Y23000000D03*
%TD*%
D17*
%TO.C,C9*%
X25800000Y12520000D03*
X25800000Y13480000D03*
%TD*%
D50*
%TO.C,C22*%
X36000000Y9775000D03*
X36000000Y8225000D03*
%TD*%
D28*
%TO.C,R40*%
X78000000Y3290000D03*
X78000000Y4310000D03*
%TD*%
D16*
%TO.C,R34*%
X57500000Y19510000D03*
X57500000Y18490000D03*
%TD*%
D11*
%TO.C,R28*%
X61690000Y4500000D03*
X62710000Y4500000D03*
%TD*%
D13*
%TO.C,C43*%
X79200000Y12480000D03*
X79200000Y11520000D03*
%TD*%
D11*
%TO.C,R46*%
X80490000Y6700000D03*
X81510000Y6700000D03*
%TD*%
D23*
%TO.C,C49*%
X67000000Y12425000D03*
X67000000Y13975000D03*
%TD*%
D51*
%TO.C,J1*%
X5275000Y18000000D03*
X5275000Y16800000D03*
X5275000Y15600000D03*
X5275000Y14400000D03*
X5275000Y13200000D03*
X5275000Y12000000D03*
D52*
X1500000Y19150000D03*
X1500000Y10850000D03*
%TD*%
D38*
%TO.C,R11*%
X25525000Y9300000D03*
X23875000Y9300000D03*
%TD*%
D11*
%TO.C,R33*%
X63190000Y8200000D03*
X64210000Y8200000D03*
%TD*%
D15*
%TO.C,C19*%
X37425000Y25800000D03*
X38975000Y25800000D03*
%TD*%
D28*
%TO.C,R20*%
X45800000Y2990000D03*
X45800000Y4010000D03*
%TD*%
D11*
%TO.C,R26*%
X57290000Y4500000D03*
X58310000Y4500000D03*
%TD*%
D53*
%TO.C,C63*%
X84000000Y1450000D03*
X84000000Y3350000D03*
%TD*%
D12*
%TO.C,D7*%
X14000000Y19850000D03*
X14000000Y21950000D03*
%TD*%
D10*
%TO.C,C64*%
X81520000Y1000000D03*
X82480000Y1000000D03*
%TD*%
%TO.C,C52*%
X72020000Y24200000D03*
X72980000Y24200000D03*
%TD*%
D17*
%TO.C,C5*%
X25800000Y20520000D03*
X25800000Y21480000D03*
%TD*%
D11*
%TO.C,R23*%
X47490000Y11200000D03*
X48510000Y11200000D03*
%TD*%
D54*
%TO.C,D15*%
X65950000Y28200000D03*
X68050000Y28200000D03*
%TD*%
D15*
%TO.C,C34*%
X40725000Y23500000D03*
X42275000Y23500000D03*
%TD*%
D17*
%TO.C,C4*%
X12299999Y17000000D03*
X12299999Y17960000D03*
%TD*%
%TO.C,C8*%
X12299999Y12600000D03*
X12299999Y13560000D03*
%TD*%
D11*
%TO.C,R24*%
X49690000Y11200000D03*
X50710000Y11200000D03*
%TD*%
D28*
%TO.C,R14*%
X33000000Y8290000D03*
X33000000Y9310000D03*
%TD*%
D15*
%TO.C,C57*%
X79725000Y29500000D03*
X81275000Y29500000D03*
%TD*%
D38*
%TO.C,R12*%
X3825000Y9000000D03*
X2175000Y9000000D03*
%TD*%
D17*
%TO.C,C3*%
X25800000Y16520000D03*
X25800000Y17480000D03*
%TD*%
M02*
