M48
; DRILL file KiCad 10.0.5 date 2026-08-26T17:12:34
; FORMAT={-:-/ absolute / metric / decimal}
; #@! TF.CreationDate,2026-08-26T17:12:34+08:00
; #@! TF.GenerationSoftware,Kicad,Pcbnew,10.0.5
; #@! TF.FileFunction,Plated,1,4,PTH
FMAT,2
METRIC
; #@! TA.AperFunction,Plated,PTH,ViaDrill
T1C0.200
; #@! TA.AperFunction,Plated,PTH,ComponentDrill
T2C0.200
%
G90
G05
T1
X7.85Y12.67
X8.0Y19.6
X8.2Y9.5
X8.4Y13.4
X13.52Y4.8
X14.8Y16.45
X15.0Y31.0
X15.0Y1.2
X16.71Y4.8
X17.0Y16.35
X17.0Y14.25
X18.52Y4.8
X19.2Y12.05
X21.4Y10.7
X21.5Y20.0
X21.71Y4.8
X22.0Y10.4
X22.0Y8.6
X23.0Y9.5
X24.0Y16.4
X24.4Y14.8
X26.2Y19.6
X26.2Y10.2
X26.8Y25.8
X26.8Y18.52
X26.8Y16.52
X26.8Y12.52
X27.8Y21.2
X28.2Y23.9
X28.4Y15.4
X28.8Y11.8
X29.2Y10.6
X29.6Y18.2
X29.6Y17.4
X29.6Y15.8
X29.6Y15.0
X29.6Y11.8
X30.2Y6.0
X30.4Y25.8
X30.4Y17.4
X30.4Y15.8
X31.2Y18.2
X31.2Y14.2
X31.2Y13.4
X31.2Y12.6
X31.6Y11.4
X32.0Y18.2
X32.0Y16.6
X32.0Y15.8
X32.0Y15.0
X32.0Y12.6
X32.8Y17.4
X32.8Y16.6
X33.0Y21.6
X33.0Y10.7
X33.6Y18.2
X33.6Y17.4
X33.6Y15.8
X33.6Y15.0
X33.6Y14.2
X33.6Y11.8
X33.8Y25.8
X34.4Y17.4
X34.4Y15.8
X34.4Y12.6
X34.8Y7.8
X35.6Y21.6
X35.6Y17.8
X35.6Y16.2
X35.6Y15.4
X36.2Y14.0
X36.4Y11.35
X36.6Y19.6
X36.8Y15.9
X37.0Y25.8
X37.0Y21.0
X38.0Y11.4
X38.2Y12.0
X39.0Y12.0
X39.2Y1.2
X40.0Y31.0
X40.0Y11.5
X40.2Y9.4
X42.0Y22.0
X42.2Y9.7
X42.4Y15.0
X43.0Y12.0
X43.0Y10.4
X43.4Y21.0
X43.7Y22.2
X43.8Y9.713
X44.3Y12.1
X44.8Y3.0
X46.4Y6.8
X46.5Y22.2
X46.6Y10.6
X48.1Y26.4
X48.4Y7.0
X48.6Y7.75
X49.7Y10.0
X50.0Y28.2
X50.0Y3.4
X50.5Y2.3
X50.8Y9.4
X51.8Y4.3
X52.0Y9.7
X52.4Y7.75
X52.5Y18.8
X52.8Y9.8
X53.8Y12.0
X55.0Y4.0
X55.4Y17.8
X55.5Y9.5
X55.8Y16.0
X56.0Y13.1
X56.0Y11.0
X56.6Y15.4
X56.6Y11.6
X56.6Y5.2
X57.4Y15.2
X57.5Y20.2
X58.4Y11.8
X59.0Y16.0
X59.3Y9.5
X59.6Y27.2
X59.6Y16.7
X59.6Y11.8
X60.0Y31.0
X60.2Y15.4
X60.5Y11.8
X61.2Y7.2
X61.3Y19.89
X61.8Y11.8
X63.2Y9.2
X63.5Y11.4
X63.6Y16.6
X63.8Y17.6
X63.8Y15.0
X64.1Y20.7
X64.8Y18.2
X64.8Y15.2
X65.0Y1.2
X66.0Y24.8
X66.2Y14.9
X66.8Y16.2
X66.9Y19.6
X67.0Y26.8
X67.6Y15.2
X67.8Y28.6
X68.0Y16.8
X68.2Y17.5
X68.2Y15.0
X68.4Y20.06
X68.7Y18.4
X68.8Y29.6
X68.8Y27.6
X69.0Y9.2
X69.1Y23.5
X69.2Y22.0
X69.2Y18.8
X69.2Y18.0
X69.6Y11.6
X70.6Y23.6
X70.6Y11.6
X70.8Y22.8
X71.0Y24.1
X71.0Y9.2
X71.6Y11.6
X71.8Y27.6
X71.8Y22.8
X72.4Y23.4
X72.5Y7.5
X72.8Y11.6
X73.0Y23.2
X73.0Y13.2
X73.0Y9.2
X73.5Y24.9
X73.6Y12.2
X74.0Y23.4
X74.4Y11.4
X74.9Y28.8
X75.0Y9.2
X75.2Y12.8
X75.5Y6.3
X75.8Y24.9
X76.0Y22.6
X76.8Y13.2
X76.8Y2.8
X77.3Y3.29
X78.0Y26.2
X78.2Y4.6
X78.8Y21.7
X78.8Y20.1
X78.8Y16.6
X78.8Y15.8
X78.9Y19.0
X79.0Y5.2
X79.0Y1.9
X79.3Y25.7
X79.5Y30.3
X79.6Y21.2
X79.6Y19.6
X80.0Y28.2
X80.0Y25.1
X80.8Y12.0
X81.5Y27.5
X82.4Y8.3
X82.6Y9.8
X82.6Y0.82
X82.8Y2.55
X83.3Y6.7
X83.5Y21.6
X84.0Y13.5
X84.0Y11.6
X84.4Y26.6
X84.6Y4.8
X85.8Y13.545
X85.8Y12.495
X85.8Y9.195
X85.9Y4.6
X86.7Y0.81
X87.75Y2.56
X87.8Y11.4
X88.7Y0.81
X89.0Y1.7
X90.0Y3.8
X90.4Y2.4
T2
X71.05Y20.95
X71.05Y19.475
X71.05Y18.0
X71.05Y16.525
X71.05Y15.05
X72.525Y20.95
X72.525Y19.475
X72.525Y18.0
X72.525Y16.525
X72.525Y15.05
X74.0Y20.95
X74.0Y19.475
X74.0Y18.0
X74.0Y16.525
X74.0Y15.05
X75.475Y20.95
X75.475Y19.475
X75.475Y18.0
X75.475Y16.525
X75.475Y15.05
X76.95Y20.95
X76.95Y19.475
X76.95Y18.0
X76.95Y16.525
X76.95Y15.05
M30
