%TF.GenerationSoftware,KiCad,Pcbnew,10.0.5*%
%TF.CreationDate,2026-08-24T21:37:13+08:00*%
%TF.ProjectId,usb_pogo_dock,7573625f-706f-4676-9f5f-646f636b2e6b,rev?*%
%TF.SameCoordinates,Original*%
%TF.FileFunction,Soldermask,Top*%
%TF.FilePolarity,Negative*%
%FSLAX46Y46*%
G04 Gerber Fmt 4.6, Leading zero omitted, Abs format (unit mm)*
G04 Created by KiCad (PCBNEW 10.0.5) date 2026-08-24 21:37:13*
%MOMM*%
%LPD*%
G01*
G04 APERTURE LIST*
G04 Aperture macros list*
%AMRoundRect*
0 Rectangle with rounded corners*
0 $1 Rounding radius*
0 $2 $3 $4 $5 $6 $7 $8 $9 X,Y pos of 4 corners*
0 Add a 4 corners polygon primitive as box body*
4,1,4,$2,$3,$4,$5,$6,$7,$8,$9,$2,$3,0*
0 Add four circle primitives for the rounded corners*
1,1,$1+$1,$2,$3*
1,1,$1+$1,$4,$5*
1,1,$1+$1,$6,$7*
1,1,$1+$1,$8,$9*
0 Add four rect primitives between the rounded corners*
20,1,$1+$1,$2,$3,$4,$5,0*
20,1,$1+$1,$4,$5,$6,$7,0*
20,1,$1+$1,$6,$7,$8,$9,0*
20,1,$1+$1,$8,$9,$2,$3,0*%
G04 Aperture macros list end*
%ADD10C,2.200000*%
%ADD11C,0.650000*%
%ADD12RoundRect,0.150000X-0.575000X0.150000X-0.575000X-0.150000X0.575000X-0.150000X0.575000X0.150000X0*%
%ADD13RoundRect,0.075000X-0.650000X0.075000X-0.650000X-0.075000X0.650000X-0.075000X0.650000X0.075000X0*%
%ADD14O,2.100000X1.000000*%
%ADD15O,1.600000X1.000000*%
%ADD16RoundRect,0.135000X0.185000X-0.135000X0.185000X0.135000X-0.185000X0.135000X-0.185000X-0.135000X0*%
%ADD17RoundRect,0.250000X0.650000X-0.325000X0.650000X0.325000X-0.650000X0.325000X-0.650000X-0.325000X0*%
%ADD18RoundRect,0.218750X0.218750X0.256250X-0.218750X0.256250X-0.218750X-0.256250X0.218750X-0.256250X0*%
%ADD19RoundRect,0.200000X0.275000X-0.200000X0.275000X0.200000X-0.275000X0.200000X-0.275000X-0.200000X0*%
%ADD20RoundRect,0.135000X-0.185000X0.135000X-0.185000X-0.135000X0.185000X-0.135000X0.185000X0.135000X0*%
%ADD21RoundRect,0.050000X0.300000X-0.150000X0.300000X0.150000X-0.300000X0.150000X-0.300000X-0.150000X0*%
%ADD22RoundRect,0.135000X-0.135000X-0.185000X0.135000X-0.185000X0.135000X0.185000X-0.135000X0.185000X0*%
%ADD23RoundRect,0.218750X-0.218750X-0.256250X0.218750X-0.256250X0.218750X0.256250X-0.218750X0.256250X0*%
%ADD24RoundRect,0.150000X-0.587500X-0.150000X0.587500X-0.150000X0.587500X0.150000X-0.587500X0.150000X0*%
%ADD25R,1.900000X1.900000*%
%ADD26C,1.900000*%
G04 APERTURE END LIST*
D10*
%TO.C,H4*%
X39000000Y-20500000D03*
%TD*%
D11*
%TO.C,J1*%
X7600000Y-9110000D03*
X7600000Y-14890000D03*
D12*
X9045000Y-8750000D03*
X9045000Y-9550000D03*
D13*
X9045000Y-10750000D03*
X9045000Y-11750000D03*
X9045000Y-12250000D03*
X9045000Y-13250000D03*
D12*
X9045000Y-14450000D03*
X9045000Y-15250000D03*
X9045000Y-15250000D03*
X9045000Y-14450000D03*
D13*
X9045000Y-13750000D03*
X9045000Y-12750000D03*
X9045000Y-11250000D03*
X9045000Y-10250000D03*
D12*
X9045000Y-9550000D03*
X9045000Y-8750000D03*
D14*
X8130000Y-7680000D03*
D15*
X3950000Y-7680000D03*
D14*
X8130000Y-16320000D03*
D15*
X3950000Y-16320000D03*
%TD*%
D10*
%TO.C,H3*%
X32000000Y-20500000D03*
%TD*%
D16*
%TO.C,R1*%
X11000000Y-5510000D03*
X11000000Y-4490000D03*
%TD*%
D17*
%TO.C,C1*%
X18000000Y-19975000D03*
X18000000Y-17025000D03*
%TD*%
D18*
%TO.C,D2*%
X28787500Y-6500000D03*
X27212500Y-6500000D03*
%TD*%
D19*
%TO.C,R4*%
X22000000Y-19325000D03*
X22000000Y-17675000D03*
%TD*%
D20*
%TO.C,R2*%
X11000000Y-18490000D03*
X11000000Y-19510000D03*
%TD*%
D21*
%TO.C,D1*%
X15000000Y-6850000D03*
X15000000Y-6150000D03*
%TD*%
D10*
%TO.C,H2*%
X39000000Y-3500000D03*
%TD*%
D22*
%TO.C,R5*%
X24490000Y-6500000D03*
X25510000Y-6500000D03*
%TD*%
D19*
%TO.C,R3*%
X14000000Y-19325000D03*
X14000000Y-17675000D03*
%TD*%
D23*
%TO.C,F1*%
X18212500Y-6500000D03*
X19787500Y-6500000D03*
%TD*%
D24*
%TO.C,U1*%
X17062500Y-11050000D03*
X17062500Y-12950000D03*
X18937500Y-12000000D03*
%TD*%
D10*
%TO.C,H1*%
X32000000Y-3500000D03*
%TD*%
D25*
%TO.C,J2*%
X30190000Y-12000000D03*
D26*
X32730000Y-12000000D03*
X35270000Y-12000000D03*
X37810000Y-12000000D03*
%TD*%
M02*
